/* XPM */
static char *_391ed56bad8436fb6c049c495f718a3d2dN7tBIiez1DNV0[] = {
/* columns rows colors chars-per-pixel */
"64 64 243 2 ",
"   c #15170D",
".  c #1E2110",
"X  c #2C3706",
"o  c #343D0A",
"O  c #282A17",
"+  c #353A17",
"@  c #393C24",
"#  c #394607",
"$  c #3E5109",
"%  c #3C4315",
"&  c #434E07",
"*  c #485507",
"=  c #525D05",
"-  c #454A1B",
";  c #4C5518",
":  c #535A18",
">  c #586609",
",  c #5B6619",
"<  c #5C7110",
"1  c #616C06",
"2  c #63750B",
"3  c #697809",
"4  c #747F07",
"5  c #636C17",
"6  c #69771A",
"7  c #747E18",
"8  c #454A24",
"9  c #4E5424",
"0  c #545A28",
"q  c #595D30",
"w  c #5B6228",
"e  c #636B26",
"r  c #6C7625",
"t  c #757D26",
"y  c #6D7333",
"u  c #887D29",
"i  c #917826",
"p  c #6C8408",
"a  c #76860A",
"s  c #7B8C0A",
"d  c #7C920A",
"f  c #69841F",
"g  c #6D8B1D",
"h  c #73881C",
"j  c #6A941A",
"k  c #73951E",
"l  c #6A8527",
"z  c #6D8B23",
"x  c #6D8C2A",
"c  c #758423",
"v  c #7B8526",
"b  c #748C25",
"n  c #7B8C25",
"m  c #74852A",
"M  c #7C852B",
"N  c #748C2B",
"B  c #7C8C2B",
"V  c #6D9825",
"C  c #6D922B",
"Z  c #749325",
"A  c #7B9225",
"S  c #749A25",
"D  c #7B9A26",
"F  c #75942B",
"G  c #7C932B",
"H  c #759B2C",
"J  c #7C9B2C",
"K  c #6C8A31",
"L  c #7C8633",
"P  c #7A8637",
"I  c #758C32",
"U  c #7D8D32",
"Y  c #6E9234",
"T  c #749332",
"R  c #7C9332",
"E  c #7D9B33",
"W  c #799837",
"Q  c #6FA425",
"!  c #78A227",
"~  c #7CA22C",
"^  c #7DA232",
"/  c #7BA435",
"(  c #7E874A",
")  c #818E09",
"_  c #84930A",
"`  c #869A0A",
"'  c #889808",
"]  c #8C9B0A",
"[  c #919E0C",
"{  c #879517",
"}  c #8DA10A",
"|  c #95A40B",
" . c #97A808",
".. c #9CAB0B",
"X. c #9CAF0C",
"o. c #A1AD0A",
"O. c #A4B20B",
"+. c #AAB70B",
"@. c #A7B80F",
"#. c #ADBA0B",
"$. c #B1BD0C",
"%. c #A9B917",
"&. c #ADBC15",
"*. c #B2BF14",
"=. c #828426",
"-. c #838C25",
";. c #898A26",
":. c #83842B",
">. c #8A852C",
",. c #838C2C",
"<. c #8A8B2D",
"1. c #92842E",
"2. c #9D832F",
"3. c #918B2D",
"4. c #83932D",
"5. c #8A932E",
"6. c #869828",
"7. c #829B2C",
"8. c #94962E",
"9. c #858633",
"0. c #8C8632",
"q. c #848C32",
"w. c #8B8C32",
"e. c #878A3A",
"r. c #8D8D38",
"t. c #948533",
"y. c #9C8635",
"u. c #938C34",
"i. c #9B8B35",
"p. c #968739",
"a. c #948D3A",
"s. c #9C8E3C",
"d. c #849432",
"f. c #8B9334",
"g. c #849A33",
"h. c #8B9A35",
"j. c #849439",
"k. c #8C943A",
"l. c #849A39",
"z. c #8B9B3A",
"x. c #939235",
"c. c #949B34",
"v. c #94943A",
"b. c #9B933B",
"n. c #9A9639",
"m. c #939A3C",
"M. c #A4893A",
"N. c #A1953A",
"B. c #84A12D",
"V. c #98A628",
"C. c #84A233",
"Z. c #88A437",
"A. c #99A739",
"S. c #A8BA27",
"D. c #A7B43A",
"F. c #AAB638",
"G. c #B3C112",
"H. c #B5C315",
"J. c #B4C31C",
"K. c #BAC718",
"L. c #B4C423",
"P. c #B8C627",
"I. c #BCCB24",
"U. c #BCCC2B",
"Y. c #ADC332",
"T. c #BCCC32",
"R. c #B4C23B",
"E. c #B9C939",
"W. c #BED039",
"Q. c #C0CE1E",
"!. c #C2CE25",
"~. c #C1CE2B",
"^. c #C4D12C",
"/. c #C1CF3C",
"(. c #C5D434",
"). c #C5D43C",
"_. c #C9D73B",
"`. c #C7D83B",
"'. c #8A8948",
"]. c #8A9344",
"[. c #9B9442",
"{. c #9A9A43",
"}. c #A39545",
"|. c #99A547",
" X c #94AE4A",
".X c #ABB443",
"XX c #A6AA54",
"oX c #A9B658",
"OX c #959570",
"+X c #A7AF69",
"@X c #B6B96B",
"#X c #BBBE73",
"$X c #BACB47",
"%X c #BAC759",
"&X c #B7CD6C",
"*X c #C0CD45",
"=X c #C5D543",
"-X c #C7D647",
";X c #CBD944",
":X c #CCDC4B",
">X c #D1DE4E",
",X c #CCDC53",
"<X c #C9D85A",
"1X c #D1DE52",
"2X c #CFE15A",
"3X c #D5E155",
"4X c #D5E25B",
"5X c #D9E35B",
"6X c #C7DB68",
"7X c #CBD273",
"8X c #CEE26E",
"9X c #D4E363",
"0X c #DBE563",
"qX c #D4E46C",
"wX c #DCE769",
"eX c #D8E677",
"rX c #DDEA74",
"tX c #DCEB7C",
"yX c #E1EB74",
"uX c #E3EE7D",
"iX c #AEAE84",
"pX c #B9B988",
"aX c #BAB99B",
"sX c #BFBDA0",
"dX c #BFC0A0",
"fX c #CBD390",
"gX c #DAE988",
"hX c #DFF08E",
"jX c #DBE697",
"kX c #E3EF83",
"lX c #E4F085",
"zX c #E5F28B",
"xX c #E5F393",
"cX c #E5F39B",
"vX c #E8F59C",
"bX c #CBCCA9",
"nX c #DADDB8",
"mX c #DFE2BC",
"MX c #E3EEA6",
"NX c #E7F4A6",
"BX c #E6EEB8",
"VX c #DADBC1",
"CX c #E4E8C1",
/* pixels */
"Z B 0.s.u.f.j.R R R 5.c.c.5.4.g.x.x.,.c A Z.h.v l c >.u.x.0.w.f.3.N.u.0.t.0.q.q.0.u q.f.f.,.c M ;.<.,.-.-.w.f.w.x.,.z F A 5.4.D ",
"k A f.<.-.h.g.d.F d.f.x.c.h.A b g.g.7.4.f.m.k.B B B G 4.f.u.f.f.n.n.>.:.u.0.:.:.=.w.m.f.,.4.d.f.f.f.f.4.,.,.<.w.z.d.F S F A A H ",
"7.A 5.4.A C.A 4.z A B ,.m.z.N f F S B.Z.x.0.q.N M F F S B f.d.4.x.8.=.,.s.0.:.9.:.f.f.4.4.4.h.f.f.f.d.d.B B ,.w.,.,.g.A 4.n J ^ ",
"A n -.4.b J Z 7.Z A B ,.k.g.B N N b D z.v.0.M B b F n A n G B v -.5.-.:.>.u :.r.u.w.v ,.f.4.f.,.5.;.B B B B d.f.,.f.z.h.5.4.7.J ",
"n f.u.<.c N F F 4.f.f.<.d.q.B B N l m d.d.5.<.0.,.4.A 5.4.d.B n 4.m.m.m.b.u.r.[.a.:.v f.h.,.w.w.,.,.,.B ,.d.f.f.B d.g.l.E J Z V ",
"f.m.u.0.q.B F Z <.v.x.4.B G B M x x I R A ;.1.M.M.x.4.J d.u.3.B h ,.B ,.u.u.q.0.r.0.,.d.f.,.,.0.4.d.w.w.w.f.w.q.B F F E F J Z Z ",
"4.,.,.v j.R 4.h.u.x.f.4.A J g.q.F R E d.4.<.i.M.M.M.w.N ,.i.i.A g.d.v M u.a.v.{.k.q.,.B B 4.-.=.d.q.w.u.u.0.q.:.j.d.R R R G A A ",
"A D Z.b F F 5.8.[.0.-.A k Z g.j.q.n A 4.w.a.s.x.a.M.2.t ,.y.s.F g.d.B q.a.0.w.m.f.d.d.n A 5.4.,.B q.0.u.a.0.0.q.I x x x H F E g.",
"b E C.S b g.-.f.5.5.4.A Z b F d.k.v ,.w.v.b.0.u i u q.0.q.x.4.c g.i.i.f.,.4.d.t.x.f.,.b n d.j.M :.w.k.v.v.U U r.e.U I l x F H H ",
"g.7.S S A B c ,.h.4.n F A b c n q.,.d.,.0.b.a.0.y.t.w.u.0.w.,.f.d.u.x.d.B d.4.,.>.,.B b A g.g.B q.M B g.z.k.9.L P I W T C T W E ",
"g.7.S ~ g.4.v v B A B n n G ,.q.k.d.q.w.u.0.0.v.w.1.y.,.,.w.>.b B 0.e.B b 4.G B q.q.4.B b E g.j.j.U N T d.u.w.I l K Y Y Y x N B ",
"b Z S ^ Z.z.f.w.B B A A G d.f.f.w.f.-.=.:.:.>.0.a.t.i.x.x.g.,.v :.:.q.M v ,.,.m q.q.q.B N G l.z.d.j.R N m w.k.I K K Y Y Y C N b ",
"Z.F H F F B v 0.B l c d.z.d.-.,.t.w.:.<.u.u.u.b.b.u.i.x.3.C N d.u.t.b.v.v.b.x.q.q.w.f.f.G R d.,.B 4.d.B B g.l.M R I I T T H E G ",
"E N F z z d.q.r.m 6 t 4.f.w.,.w.u.:.=.<.x.u.u.[.s.i.i.u.<.B B F u.>.t.x.f.n.b.k.e.w.w.k.g.d.4.B ,.f.k.w.-.G g.f.R B M B F E E J ",
"N N R z Z C.h.,.9.,.0.w.<.<.<.x.t.u.f.v v v.v.0.y.a.x.y.}.XXoXoXoX|.{.f.n f.x.j.q.M =.,.R g.g.d.d.z.k.q.B B d.z.R q.q.q.d.E l.R ",
"c m B F ! S J B a.u.u.b.n.3.<.x.u.0.f.c 6 M :.=.u t.@XfXcXvXcXcXxXxXhXgX&X Xk.z k.q.:.,.R E E G U j.R m U r.w.N R k.[.b.q.B R F ",
"t b ^ W T 7.6.f.g.,.u.v.t.u.x.,.<.u.u.v =.t.0.].7XNXNXcXxXzXzXzXzXlXlXlXlXlXgX&Xl.d.,.,.,.G A F h.w.:.q.b.N.v.G b ,.{.v.f.q.q.L ",
"d.R F S g G b D b 4.x.<.<.u.x.w.3.i.y.u u 0.#XMXNXcXxXzXzXzXkXkXuXuXuXuXuXuXtXtXeXoXg.4.4.4.B B d.w.q.k.v.u.f.G D B f.f.f.q.B L ",
"b m B A 6.g.E D J 5.;.-.h.x.>.1.<.u.}.s.{.jXNXvXxXzXlXuXuXuXuXyXyXyXyXyXrXrXrXrXrXeX6X|.d.4.M M B ,.q.j.d.,.4.J C.G B A G d.M q.",
"b b d.7.A.Z.Z.S S h.8.-.4.k.u.y.f.f.{.}.nXBXMXjXgXtXrXwXwXwXwX0X0X0X0X0X0X0X0X9X6X7X7X@XR B q.w.B q.,.M B G J ~ E J b b J C.4.q.",
"B B N J B.B.D 6.J -.3.h.g.,.t.}.>.v f.jXNXNXMXMXBXCXCXCXmXnXnXnXVXVXVXVXVXnXnXnXjXjX8X6X%Xz.k.k.d.f.w.,.4.D ~ J H S z Z H C.A ,.",
"n m m S ! D A 6.D ;.<.4.A d.x.0.c c fXcXxXgXtXrXrXyXwXwX0X5X5X5X5X3X5X4X3X3X>X>X:X,X,X<X-X$XB M q.d.f.x.f.F J J J F b Z H J Z 4.",
"F N R G B.J 4.,.n v -.D Z A d.h.F oXcXhXtXeXqXwXwXwX0X0X0X5X5X3X1X>X>X>X:X:X;X:X-X-X-X-X=XW.A.B ,.q.,.f.5.Z J J E F F F Z Z F d.",
"H D A m l 7.n P B 4.n g Z 7.J Z W jXhXtXqXqX9X9XwXwX4X4X5X3X3X1X>X;X;X;X;X;X;X;X=X-X=X=XT.U.S.g.d.j.-.=.v S H A F B g.A Z S J N ",
"B B B T x q.>.<.5.<.;.-.D J 4.-.oXhXtXqXqX9X4X9X0X4X3X4X3X3X1X1X:X:X;X;X;X;X:X=X).)./.T.L.L.S.V.u.w.,.A A S H V J E ,.u.d.V F <.",
"g.-.,.B t q.f.n ,.4.A F F G d.d.jXtXqX9X9X9X<X<X<X9X<X<X4X<X,X1X1X$X;X*XE.(.R.R.D.R.U.U.P.P.&...d.d.4.4.A D 7.J J S c 5.h.^ S ,.",
"b 4.4.,.q.b.k.g.f.k.g.F b B q.XXgXeXqX4X4X2X|.8 @ ].y q ].w z.,X-X. A.A.O D.+ t - - 4.U.L.%.%...6.G 7.B.B.7.7.F H H J 7.J Z g g.",
"S C.g.d.v.}.u.w.,.x.n.f.q.U 0.#XeXqX<X2X:X:X|.@ y 9 ,X%X+ e A.:Xk.8 w R.O + O c., S.+ T.L.&.O.| { Z A 7.Z.C.J S H S V j k k Z  X",
"g.A A G ,.s.t.:.<.v.n.w.-.:.u.7XqX2X,X:X:X;XL q y 8 F.q.w 0 k.L + 0 O D.- 4.  D.- ,.; T.P.@. .] s z z A G F G F g S / Q ! k g F ",
">.=.n Z B u.0.w.5.k.f.B =.:.u.gX8X<X-X-X-X`.A.F.f..Xr M ;Xt e h.M `.v -.v ^.t S., , S.L.&.O...' s z F E G n B B D S Q j ! ~ ^ ^ ",
"t.u.5.D ,.u.<.g.c ,.q.w.a.u.[.eX6X-X).).).`.D.0 0 5._.9 R.F.% 9 5.: ; ; P.: - 5 V.+ 5 &.@...| _ 4 b / Z.g.G 4.4.6.C.J D k V ! g.",
"a.:.B A v b.a.B B 0.t.t.p.a.[.6X<X-XW.=X_.`.- R.R.A.c.O ,.*XO t : e t   e 6 I.+ : % { @.O.| ' a 3 6 N F Z Z J J 6.J g 6.D Q V A ",
"i.k.z.M t.}.d.4.q.M j.{.s.t.[.6X<XW.W.W.).`.9 D.t w 9 @ + /.. + D.e . % 5 7 H.% { ; & o...[ _ 4 1 f F A E S g S J Z h b S ~ G :.",
"b.,.g.:.>.v.4.n :.q.U j.r.t.b.6X$XW.T.T.).).D.0 9 t e F.8 f.+ f.- , t X 7 o : : 7 o > ..| ' s 3 1 b 7.6.7.7.A z S E l.g.b S J B ",
"x.,.v v ,.G B 5.,.k.I m L 0.a.<X$XT.U.U.)._.;X_._.`.`.;X_.).~.(.E.P.L.J.J.J.%.*.#.O.O. .] ) 4 1 > m 5.5.7.C.g.C C z H A.7.7.J Z ",
"<.f.<.=.d.F D x.f.m.j.M w.0.a.%X$XT.U.U.U.(._.).=X_._.`._.`.(.^.^.^.K.K.H.H.H.$.+.O...[ ' a 3 > = B d.k.g.G A S H C G g.4.A 7.4.",
"<.x.b.u.,.S g.;.,.k.f.u.a.p.a.oXE.P.L.I.U.U.(._.`.`.`.`.`.`.(.!.Q.!.K.H.G.$.$.+.O. .| ' ) 4 1 > > Z B q.g.G B C.H 4.g.Z J J h.<.",
"v.w.u.x.f.z n x.f.<.<.u.1.t.a.|.Y.L.L.J.I.I.~.~.(.(.(.(.(.(.~.!.K.K.H.H.+.$.#.O.o.| ] ) a 3 > = , F b -.4.d.d.l.S 4.f.F / E d.>.",
"k.0.>.>.k.c c m.x.u.<.u.<.w.x.x.R.Y.J.J.I.I.U.U.~.^.^.^.!.I.I.P.%.&.&.$.#.+.O.O. .] _ a 3 1 = * I E d.4.D F B K R U j.E Z g B g.",
"q.U w.>.,.G G v u >.<.w.f.d.<.>..XS.&.G.J.K.K.I.P.R.%X#XpXbXaXdXbXsXaXiX+XXXV.[ ] _ a 3 > = * : 4.A f.m.R N F C K m I E g 4.g.E ",
"F f.:.,.w.k.k.p.5.<.u.>.u 0.a.}.[.S.S.&.H.&.F.#XaXbXfX7X$XE.P.J.*.%.S.F..XXX+XOX'.y 5 > > * & l F T F F g.z.g.R F T x z 7.7.B I ",
"B f.:.,.x.k.{.s.z.<.>.=.>.a.0.0.u A.S.@.V.iXpX%XP.H.$.$.$.#.+.O...o.o.....| | [ { c w 8 & & : R N F F F G d.R F x x x C ~ S z W ",
"-.>.t.=.<.0.q.>.,.,.<.>.:.0.0.0.t.u.V.5.+XS.+.#.+.+.+.+.+.O.........| ..[ ] _ a 3 2 = * + & B G B R E F F G F F l.R T / Z.J B k.",
",.x.<.<.x.w.m.u.B ,.w.0.u.a.w.a.0.>.h.( X.....o.o.O.O.O.O...| | | | | ` d s a 2 > = & # % m d.4.U R R C F T F F R R T R J J d.g.",
"f.w.f.,.-.v.x.v.,.f.v.u.a.b.a.v.r.:.f.g.d ` } |  . ... .| | | | ] ' _ a p 3 < > * & # # m E l.d.U U T C T W T T l Y W F z z F F ",
":.,.v -.c ,.<.M ,.w.w.0.u.a.0.w.k.M B B ,.s d ` ` ` } } } ] ` ` d s a 3 2 > > & # # # K E l.l.R U U I F R E R T x T l.g.B N N z ",
":.b j.,.q.m.u.q.,.,.:.=.u.a.:.M e.q.d.d.d.B h p p a d d d s s p 3 3 2 > = & $ o X % I l.R E R G R R T R j.j.R R N N d.j.q.j.j.B ",
"w.F f.,.d.v.b.q.=.f.z.w.0.0.M q.,.d.d.d.d.G 4.B 5 < 2 3 3 2 < > > * & # # X X o , b B R I U F R R R R d.g.j.R R R R l.R m R l.B ",
"f.d.F G G G B d.[.k.f.q.w.r.,.G w.4.g.E J E U L P m 5 > & $ $ # # X X X o ; e x.g.F G d.B F d.x.g.4.,.<.u.w.,.B 4.4.A N g.A G J ",
",.,.B d.B B v B f.,.N M e.a.q.B d.B A l.G B z.U j.R N G U t r r t r r e.w.f.f.m.<.=.4.f.f.d.4.<.<.<.>.>.<.:.B M A B B d.Z.G R g.",
">.v.w.M M k.j.M z.4.n b R j.9.0.A d.d.z.l.R d.d.n D D 4.d.d.d.h.k.q.w.[.[.0.0.f.3.<.f.4.f.n.m.g.1.1.u.1.>.:.M B B 4.G R g.d.d.B ",
"0.0.e.e.e.q.q.h.z.d.,.N F I M 0.D d.d.M U g.A g.6.7.Z b n d.G G f.q.j.v.u.>.:.d.5.f.d.b B f.d.J i.N.N.x.,.,.d.d.d.l.z.d.B ,.q.v ",
">.a.].e.e.e.f.d.0.d.G E g.,.B G g.B B M q.z.z.g.C.C.F c M k.q.4.4.G c -.>.x.w.R G f.f.N b G B b 3.c.c.5.A n A A G R l.g.c v ,.f.",
"a.0.e.q.q.M M 4.0.f.d.g.h.4.A Z Z n n d.q.B 4.B A G B c M r.q.j.A G c ,.f.m.4.4.G f.x.,.B G ,.;.h n 4.F Z A A n G F F G b B q.f.",
"0.v.g.c c B B c N f.u.x.d.F b A D g.4.4.,.c M g.z.q.q.,.v.m.q.d.R d.M f.f.d.B 4.,.,.f.w.B B 4.f.v n A F J J 7.5.J S S F A h.d.,.",
"u.m.h.b G g.d.c f f.n.N.m.d.d.h.F b 5.4.v q.f.q.w.t :.<.v.f.,.l.l.q.v ,.d.B B v.u.B g.z.,.B F G w.,.B F F E g.f.Z z Z J F A c 4.",
"h.,.f.b T U c q.S R q.M A D F R B B b b ,.:.=.w.,.0.0.0.a.a.0.=.,.w.:.:.>.0.<.0.3.<.,.G Z b 5.5.4.4.4.4.A A A A S R F F 4.,.,.d.",
"v v f.f.z.R l R J g.D c B d.G c v 4.g.g.f.-.v ,.,.q.:.0.0.0.:.=.-.g.d.,.w.v.,.v :.=.,.g.J A 4.4.,.,.4.G A A ,.-.A A F G 4.,.B F ",
"G R d.>.<.R H R H D A A R j.G h 4.8.c.c.5.A 4.d.q.,.M :.=.:.:.<.-.,.,.j.w.<.<.x.f.,.,.d.4.A d.d.u.f.d.F F 4.5.8.A A A G 7.D F T ",
"E F v >.u.v B d.n A A D g.g.4.6.h.5.8.8.4.4.g.h.x.0.0.0.u.w.v.n.x.c.d.,.:.b.s.i.d.B B ,.,.,.d.4.i.u.,.B G 4.4.x.4.A b b D A Z F ",
"b ,.,.f.k.:.f.f.;.d.R b Z J 7.7.J A 5.f.d.4.d.c.u.:.>.>.w.,.f.g.5.h.d.,.,.{.b.t.B B c v :.<.f.d.t.<.<.w.f.,.B d.5.A b b F D A F ",
"v x.b.,.d.f.m.U ;.q.I b A 6.7.J b B d.f.f.,.,.k.g.,.w.v.f.d.A S b b b B B k.v.f.,.,.n v <.u.v.v.w.<.,.w.f.,.B g.h.g.G A J 7.D A ",
"5.<.0.x.k.M m m ,.n b A 5.6.4.D ,.4.G G 4.,.,.4.G A f.n.<.,.B b B B c c M v.f.c <.d.d.g.c.w.<.<.4.d.,.-.,.-.:.f.w.f.q.B J J A A ",
"g.A f.u.w.m m U d.J D A d.k.d.n ;.4.A b ,.f.,.n S B v.N.i.1.u.f.,.:.:.x.u.u.u.<.w.d.G g.f.=.=.<.G g.G G d.w.>.u.0.x.f.B J ~ J 4."
};
