/* XPM */
static char *_7dede92295b4b2f8f051e2c4b283e7cWoZO2P1z2fiQWyjT[] = {
/* columns rows colors chars-per-pixel */
"64 64 248 2 ",
"   c #392B0D",
".  c #3C3723",
"X  c #472A03",
"o  c #572E00",
"O  c #4C3709",
"+  c #543806",
"@  c #5A3C03",
"#  c #4B3B15",
"$  c #533A14",
"%  c #663803",
"&  c #7C3D00",
"*  c #564314",
"=  c #644706",
"-  c #634513",
";  c #6D7A1E",
":  c #4D4326",
">  c #544223",
",  c #594223",
"<  c #595424",
"1  c #797F23",
"2  c #747C2C",
"3  c #833F00",
"4  c #8A5209",
"5  c #9B5404",
"6  c #A15E0D",
"7  c #906811",
"8  c #8A5D2B",
"9  c #897D2B",
"0  c #927826",
"q  c #8B7F35",
"w  c #886E44",
"e  c #6A841F",
"r  c #6D8B1D",
"t  c #73891E",
"y  c #6A941A",
"u  c #73951E",
"i  c #698725",
"p  c #6D8B23",
"a  c #6D8B2A",
"s  c #758523",
"d  c #7C8525",
"f  c #748C25",
"g  c #7A8C25",
"h  c #74852B",
"j  c #7C852B",
"k  c #758C2B",
"l  c #7C8C2B",
"z  c #6C9725",
"x  c #6D922C",
"c  c #749325",
"v  c #7A9225",
"b  c #749A25",
"n  c #7B9A26",
"m  c #75932B",
"M  c #7C932C",
"N  c #759B2C",
"B  c #7C9B2C",
"V  c #6C8C31",
"C  c #748C31",
"Z  c #7D8C32",
"A  c #7B8835",
"S  c #6E9234",
"D  c #749332",
"F  c #7C9333",
"G  c #799737",
"H  c #7D9B33",
"J  c #6FA425",
"K  c #7AA22A",
"L  c #7DA232",
"P  c #7BA435",
"I  c #828426",
"U  c #838C25",
"Y  c #898A26",
"T  c #83852B",
"R  c #8A852C",
"E  c #838C2C",
"W  c #8A8B2E",
"Q  c #93842E",
"!  c #9D832F",
"~  c #928B2C",
"^  c #859728",
"/  c #83932D",
"(  c #8A932D",
")  c #839B2C",
"_  c #94942E",
"`  c #858532",
"'  c #8C8533",
"]  c #848C32",
"[  c #8B8C32",
"{  c #878939",
"}  c #8C8C39",
"|  c #938433",
" . c #9C8636",
".. c #928C34",
"X. c #9B8B35",
"o. c #948638",
"O. c #9E833C",
"+. c #948C3A",
"@. c #9C8C3C",
"#. c #849432",
"$. c #8B9334",
"%. c #849A34",
"&. c #8B9B35",
"*. c #849439",
"=. c #8B933A",
"-. c #849B3A",
";. c #8C9B3B",
":. c #939335",
">. c #939B35",
",. c #94933A",
"<. c #9A933B",
"1. c #9A973A",
"2. c #939A3C",
"3. c #A3893A",
"4. c #A2953B",
"5. c #84A12D",
"6. c #84A233",
"7. c #8AA334",
"8. c #86A33A",
"9. c #97A53E",
"0. c #D59E1F",
"q. c #EC9D08",
"w. c #F99B08",
"e. c #EA9B18",
"r. c #F59B15",
"t. c #EBA808",
"y. c #FCA504",
"u. c #F6A805",
"i. c #FBAB04",
"p. c #F4A40B",
"a. c #FCA40B",
"s. c #F4AA0B",
"d. c #FBAA0B",
"f. c #FAB104",
"g. c #ECAB14",
"h. c #E7A518",
"j. c #ECAA1D",
"k. c #F4A513",
"l. c #FCA513",
"z. c #F4AB13",
"x. c #FBAA12",
"c. c #F8A61A",
"v. c #F3AB1C",
"b. c #FDAD1A",
"n. c #FBB11C",
"m. c #DC9E27",
"M. c #D09D32",
"N. c #E69C26",
"B. c #DCA628",
"V. c #CAA43A",
"C. c #D8A539",
"Z. c #E9A828",
"A. c #F8AA25",
"S. c #EEB32B",
"D. c #F8B524",
"F. c #FFB22B",
"G. c #E6A937",
"H. c #F1AD30",
"J. c #E5B33B",
"K. c #F8B733",
"L. c #FDB434",
"P. c #FDB53C",
"I. c #FEBB3C",
"U. c #FDC439",
"Y. c #8A9942",
"T. c #989844",
"R. c #929051",
"E. c #A59947",
"W. c #AC964A",
"Q. c #B5994B",
"!. c #AA9D58",
"~. c #97A24A",
"^. c #91A74E",
"/. c #ABA248",
"(. c #A5A75A",
"). c #B9A757",
"_. c #B0AA51",
"`. c #9A8A6E",
"'. c #A19177",
"]. c #AFAE6B",
"[. c #B6A766",
"{. c #ABB565",
"}. c #B5B56A",
"|. c #B8B676",
" X c #C9A54B",
".X c #D8AC49",
"XX c #DCB147",
"oX c #C8A757",
"OX c #D5AA57",
"+X c #C9B85B",
"@X c #D6B259",
"#X c #E6AB47",
"$X c #E6B247",
"%X c #F9B746",
"&X c #FDBC4B",
"*X c #EAB857",
"=X c #FDBD56",
"-X c #C9AB64",
";X c #D2AD62",
":X c #C6B869",
">X c #D7B467",
",X c #C5BA79",
"<X c #D6BD76",
"1X c #E8BA67",
"2X c #EFBF6D",
"3X c #B9C67C",
"4X c #FFC646",
"5X c #E6C45F",
"6X c #FEC357",
"7X c #C4C577",
"8X c #D5C472",
"9X c #ECC46A",
"0X c #FEC867",
"qX c #E6CA79",
"wX c #F6D97C",
"eX c #A19E8F",
"rX c #C0BA80",
"tX c #C8C68A",
"yX c #D7C889",
"uX c #DED58D",
"iX c #D5CD95",
"pX c #CDD095",
"aX c #D9D597",
"sX c #E6CB87",
"dX c #E7D78C",
"fX c #FCD786",
"gX c #E4DC95",
"hX c #F8D893",
"jX c #EAE695",
"kX c #FAE490",
"lX c #DBCEA3",
"zX c #DBD6A5",
"xX c #F0DDA9",
"cX c #DFE1A9",
"vX c #E8E4AC",
"bX c #FAE8A9",
"nX c #FFEDAD",
"mX c #FFF4AD",
"MX c #EAE6B8",
"NX c #F2E9B5",
"BX c #FEF6B8",
"VX c #EAE7C7",
"CX c #F7ECCA",
"ZX c #FAF6C7",
"AX c #F4E5D3",
"SX c #FAF6D8",
"DX c #FFFEE6",
"FX c ivory",
/* pixels */
"c l [ @...$.*.F F F ( >.>.( / %.>.:.] s v 7.&.d i s R ..,.' [ $.~ 4...' | ' ] ] ' T ] $.$.E s j Y W E I U [ $.[ :.E p m v ( / n ",
"u v $.W U &.%.] m #.$.>.>.&.v f %.%.) / $.2.$.d k l M #.$...$.$.1.<.R T o.' T T T [ 2.$.E / #.$.$.$.$./ E E W [ ;.#.m m m v v N ",
") v ( / v 6.v / p v U E 2.;.k e m m ) &.,.' ] k j M m m l $.#./ >._ I E @.' T T T $.$./ / / &.$.$.$.#.#.l d E [ E E #.v / g B L ",
"v g U / f B c ) c l d E $.%.l k k f n ;.,.' j l f m v v g M l g U ( U T R 9 T } ..[ d E $./ $.E ( Y l l l l #.$.E $.;.&.( / B B ",
"g $...W s k m m / $.$.W #.] l l k i h #.#.( W ' E / v ( / #.l g / 2.2.2.<.+.} T.+.T d $.&.E [ [ E E E l E #.$.$.l #.%.%.B B c z ",
"$.2...' ] k M c W ,.:./ l M l j a a C F v Y Q 3.3.:./ B #...~ l t E d E ..[ ] } } ' U #.$.E E ' E #.[ [ $.$.[ ] l M M H m B c c ",
"/ E E d *.F / ( ..:.$./ v B %.] M F H #./ W X.3.3.3.[ k E X.X.v %.#.d j +.+.2.T.=.] E l l / U I ] ] [ ....} ] T *.#.F F F M v v ",
"v n 7.f m M ( >.T.[ U v u c %.*.] g v / [ +.@.:.+.3.! 1 E  .X.m %.#.d E ..[ $.T.$.#.#.g v ( / E l ] ' ..+.' ' ] F a a a N m H %.",
"f H 6.b f %.U $.( ( / v c f M #.=.d ] [ ,.<.' 9 0 9 ] ' ] ,./ s %.X.X.$.E / #...,.$.E f g #.*.j T [ $.,.,.Z Z } { A h i a m N N ",
"%.) b b v l s E &./ g m v f s g ] E #.E [ (.|.|.,X|.|.|.|.|.}.|.|.|.|.{.(.(.(.(.!.(.(.f v %.%.k ] j l %.;.=.` A C C G D x D G H ",
"%.) b L %./ d d l v l g g M E ] =.#.] [ DXCXZXBXnXnXmXnXnXnXnXnXbXxXgXgXuXuXuXuXuXaXiXpXk H %.#.*.Z k D #.+.' C i V S S S a k l ",
"f c b L 8.;.$.[ l l v v M #.$.$.[ $.T T.CXyX<X@X.XXXXXXXXX$X$X#XXXXX$XXXC.C..X.XOXoX[.7X-.M -.=.#.*.F k h [ =.C V V S S S x k k ",
"8.m N m m l d ' l i s #.;.#.U E ..(.|.ZXnX>X*X$XZ.j.g.g.g.g.g.h.j.j.j.g.g.g.g.h.B.C. X8X{.;.%.E d / #.d l %.-.k F C C D D N H M ",
"H k m i p #.] +.h ; 1 / $.[ E tXVXvXNXmXkX*X%XS.v.s.i.i.i.u.u.s.d.s.i.i.i.i.i.u.t.h.C.wXgXaXvXMXVX$.$.[ d M %.$.F l j k m H H H ",
"k k F p c 6.&.E ` E ' [ W W W tXbX9XOX.X$X%X%XF.l.a.a.a.a.p.k.b.z.s.a.i.y.y.y.w.w.r.N.%X.X X1XbXSXSX=.] j l #.;.F ] ] ] #.H %.F ",
"s h l m K b B l +.+...1.1.FXE.,XoX XOXOXC.%XP.F.l.a.a.x.l.k.A.K.D.b.d.d.y.y.a.w.w.r.N.G..X@XOXoXxXSXVXh Z } [ m F =.T.,.] l F M ",
"2 f L G D ) ^ $.-.E ..,...DX<X).-XsXyXuXhX2X%XL.c.l.a.d.x.k.D.4X4XZ.p.y.y.y.a.w.w.r.C.8X7X7XdX-X-XbXDX] ,.4.,.M f E T.,.$.] ] A ",
"#.F m m r M f n f / :.W (.SX<XoX:X!.@.@.aXhX*XP.v.x.x.p.k.A.I.6X6XH.v.x.y.y.a.w.w.e.@X7X;./ (.dXOXsXSXT.,...$.B n l $.$.$.] k A ",
"f h l v ^ %.H n B ( Y U |.ZX;XOX2...E.@.rXbX*XL.b.x.n.K.I.&X6X0X0X=XP.F.x.u.a.w.r.N.<XpX#./ E (.OX>XSXT.#.E / L 6.M l v M #.j ] ",
"f f #.) 9.7.6.b b ( _ U |.ZXoX>X2.$.T.E.E.NX1XP.b.p.D.4X0X0X0X0X0X0X6XI.n.d.a.w.r.M.yX(.M l ] ,.>X;XCXY.l M B K H B f f B 6./ ] ",
"l l k B 5.5.n ^ B Y ~ &.{.ZX;XoXT.d E X.3.MXqX%XF.a.z.I.6X0X0X0X0X6X6XI.b.a.y.r.N. XzXH F *.=.(.oX>XMX=./ n L B N m p c N 6.v E ",
"g h h m K n v ^ n Y W / v ZX:XQ.:X].l ..3.MXhX*XL.b.k.Z.%X0X0X=X=X=X%XH.k.y.y.r.M.>XcXM M M ~.[.Q.sXvX,.$.m B B B m f c N B c / ",
"m k F M 5.B / E g d U n c CX}._.:XuXpX{.:.MXnX1XP.F.k.h.S.4X6X=X=X&XP.A.l.a.p.h.M.qXcX#.;.{.:X).Q.yXzX[ ( c B B H m M m c c m #.",
"N n v h i ) g A l / g r c 3X%.~.W.-XsXvXvXZXBX1X%XF.k.t.D.U.&X6X&X4XL.v.l.d.p.e.C.jXvXpX7X:X).4._.tX{.I d m N v m l %.v c c B f ",
"l d l D a ] R W ( W Y U n B / U !.Q. X@XdXnXBXhX#XP.n.t.D.U.F.H.P.I.I.j.x.y.w.e.9XjXdX:X)./././.E.|.E v v N N z B H / ..#.z m W ",
"%.U E l 2 ] $.g E / v v m M #.M ' ).oXQ.oX-X<XfX6XL.A.z.z.D.b.k.k.A.F.g.p.y.w.e.5X+X/./.W._.{.%.=.#./ ) v n ) B B m s ( &.L m E ",
"f / / E ] ,.=.%.$.$.%.m f l ] [ W T.).-X-X).oX.X$X%XL.A.l.x.p.s.d.q.d.x.a.w.w.e.C. XW._.(.*.M H B M ) 5.5.) ) m N N B ) B c r %.",
"b 6.%.#.,.E.+.} E :.1.$.] Z [ @.+.} T.[.tXsXqX.X#X%XP.A.l.a.u.d.d.y.i.y.w.w.k.Z.V.8X8X}.T.F F %.M c v ) 7.6.B m N b z y u u c ^.",
"%.n v M E @.o.T W ,.1.[ U T o.W.<.[ ` ' !.iXaXjX*XG.L.F.l.a.a.a.y.d.i.y.y.w.e.$XjXaX,XT.T.;.F v p i p v M m F m r b P J K u r m ",
"R I g c l +.' [ ( $.$.d I T ' <.<.| Q  .| o.aX<XoX$X&XL.c.l.a.y.d.w.i.d.q.A.G. X,XtX..[ *.%.M f i x m H M g l l n b J y K K L L ",
"| ..( n E ..W %.s E ] ' +.o.' ' R Q  . .| 9 vX[.[.hXkX6XS.z.u.i.y.i.b.h.m.wXwX!.!.].W T f M m c x N P 8.%.M / / ) 6.B n u z K ) ",
"+.T l v d X.+.d l [ | | +.+.| | ....[ R 9 9 SXlXlXZXBXwXJ.j.s.i.y.d.h.B.9XBXNXtX[.!.:./ f m c c m m k c c c B B ^ B r ^ n J z v ",
"X.=.;.j o.E.#./ ] j *.T.@.o...1 f / l s R  .@.tXlXo.,XmX9XB.z.d.a.k.Z.XXmXpX=.(.9.( l M l M l f p N m M H m r b B c t t m P M T ",
"<.E %.T R ,./ g T ] Z *.} o.| R R $.M m E ..X.E.,.' q ZXkXJ.v.a.l.v.C.fXZXk k %.( / l g l #.%.H M H ) ^ ) %.v p m H %.%.f b B l ",
":.E d d E M l ( E =.C h j ' | o.Q <.$.g E ..,.2.[ ' ` +.mX*XZ.l.l.Z.@XBX{ 2.:.T E E #.l #.#.%.H l M ( ( ) 6.%.x x i N 9.) ) B v ",
"W :.W I #.m n :.$.2.*.j ' ' o.@.E.E.,.] $.,.} ] E [ +.' NXqXZ.l.l.Z.qXNX` } :.1.] Z M l v v %.6.U v / $.%.F v N N x M %./ v ) / ",
"W :.<...E m %.Y E $.$...o.o.+.+.O.| j F -.' ' ' T R +.' iXqXm.b.l.N.qXzX] ;.9./ { A m N c c f #.v c g ] -.M l 6.N ) %.c B B &.W ",
",.} ..:.$.p g :.$.W W o.Q | +...q ' ' *.*.+.o.@.9 9 R ' |.8XB.l.b.m.8XtXl d >./ ` Z F -.F M f l F m f U %.#.#.-.m / $.m P H #.T ",
"=.] R R $.s s 2.:...W ..W [ :.:.' +.o.E T ' ' ` o.' T } }.>XZ.l.b.N.+X3X7.Y :.W E E ] ] ] *.%.-.-.H #./ M M k V F Z #.H z r l %.",
"] Z [ R E M M d 9 R W [ $.#.W R  . ...U U [ o.o.q } T $.}.oXZ.k.x.h. X{.%.g E $.$.$.,.' +.' *.F / v $.2.F k M x C h l H r / %.H ",
"m $.T E [ =.=.o.( W ..R 9 ' +.E.@.| R [ ] { T.T.' { #.-.+XB.g.f.f.z.0.+XY.s &.7.B m k F *.F a G m m m M %.;.%.F c D a p ) ) l C ",
"l $.T E :.=.T.@.;.W R I R +.' ' 9 R :.$.j ] =.{ R ] %.;.V.S.t.t.t.s.S.M.}.Z G Y.M k s k Z #.k F l M m m M #.M M a a a x L b p G ",
"U R ..I W ' ] Q E E W R T ' ' ' o...2./ s k F ;.W ] E _.G.h.g.g.g.v.Z.C.oX{ G G F l C l l l M M j F H m m M m m -.G D P 8.B l =.",
"E :.W W :.[ 2...d E } [ ..+.} +.' R $.v f l k M $.=.T oX#XZ.Z.Z.H.Z.G.#XOX:X=.*.Z Z Y.F m v #.M Z *.G x m D D m F F F D B B #.$.",
"$.[ $.E T ,.:.,.E } ,...+.<.+.,.} T $.#.#.$.E $.*.=.w 8 4 6 5 5 5 5 5 4 8 w R.#.h C Y.-.F H -.#.Z Z D x D G D D i S G m p p c c ",
"T E d U s E W j E [ } [ +.+.' [ =.j d d d E U $.] # $ o % & & 4 4 3 & % o O   F a h -.-.H -.-.F A Z C m G H G D a D -.%.l k k p ",
"T f *.E ] 2...] E E T I +.+.T d { ] #.#.#.j U $.#.* = @ 4 XXG.Z.Z.Z.XX4 @ - O R.k k F -.F H G M F F D F *.*.F F k k #.*.] *.*.k ",
"[ M $.E #.,.<.] I $.;.[ [ ' j ] E #.$.#.%.l / ( v O @ @ 7 XXJ.S.S.B..X7 + @ X `.f f l F C Z k F F F F #.%.*.F F F F -.G h F -.k ",
"$.#.m M M M l #.T.=.$.] ' } E M [ / %.H B H Z A A X = + = 0 7 7 7 7 7 = + -   '.%.m M #.l c #.:.%./ E W ..W E l / / v k %.v M B ",
"E E l #.l l d k $.E k j { +.] l #.l v %.M l ;.Z Y.O + + @ X X o o X X @ + O X `.W I / $.[ #./ W W W R R W T d j v l l #.8.M F %.",
"T ,.[ j j =.*.j ;./ g f F *.` ' v #.#.;.-.F #.#.< # O + @ @ @ @ @ @ @ @ O O # : (.W $.#.$.1.2.%.Q Q ..Q R T j l l / M F %.#.#.l ",
"' [ { { { ] ] $.;.#.E k m C j ' n #.#.j Z %.M -.  > # O $ O $ O O $ + O O # :   eX$.#.f l $.#.B X.4.4.:.E E #.#.#.-.;.#.l E ] d ",
"R +.T.{ { { $.#.[ #.M H %.E l M %.l l j ] ;.;.%.: : > > > > > > , > $ > > : : . eX$.$.k f M l f ~ >.>.( v v v v M F -.%.s d E $.",
"+.[ { ] ] d j #.' $.#.%.&./ v c c g g #.] d / l v -.Y.=.|.VXAXAXAXAXpX|.}.{.~.Y.%.$.:.E l M E Y t g / m c v v g M m M M f l ] $.",
"[ ,.%.s s l l s k $...:.#.m f v n %./ / E s j %.;.] ] E ,.2.] #.F #.j $.$.#.l / E E $.[ d l / $.d g v m B B ) ( B m m m v &.#.E ",
"..2.&.f M %.#.k e $.1.4.2.#.#.&.m f ) / d ] $.] ' 1 T W ,.$.E -.-.] d E #.l d ,...l %.;.E l m M [ E l m m H %.$.c p c B m v s / ",
"&.E $.f D Z s ] b F ] j v n m F d l f f E T T [ E ' [ ' +.+.[ T E [ T T R [ W ' ~ W E M c f ( ( / / / / v v v v m F m M / E E #.",
"d d $.$.;.M i F B %.n s l #.M s d / %.%.$.U d E E ] T ' ' ' T T U %.] E [ ,.E d T I E %.B v / / E E / M v v E U v v m M / E l M ",
"M F #.R W F N F N n v v *.*.M t / _ >.>.( v / #.] E j T T T T W U E / %.[ W W ,.$.E E #./ v #.#...$.#.M m / ( _ v v v M ) n m D ",
"H m d R ..d l #.g v v n %.%./ ^ &.( _ _ / / %.&.,.' ' ' ..[ ,.1.>.>.#.U T <.X.X.#.l d E E E #./ X...E l M / / :./ v f f n v c m ",
"f E E $.$.T $.$.Y #.F f c B ) ) B U ( $.#./ #.>...T R R [ E $.%.( &.#.E E T.<.| d l s d T W $.#...W R [ $.E l #.( v f f m n v M ",
"d :.<.E #.$.2.Z Y ] C f v ^ ) B f l #.$.$.E E $.%.E [ ,.$.#.v m f f f l l $.,.$.E E g d W ..,.,.[ W E [ $.E l %.&.%.M v B ) n v ",
"( W [ :.=.j h h E g f v ( ^ / n E / M M / E E / M v $.1.W E l f l l s s j ,.$.d W #.#.%.>.[ W W / #.E U E U T $.[ $.] l B B v v ",
"%.v $...' h h A #.B n v #.$.#.g Y / v f E $.E g m l ,.4.X.Q ..$.E T T :.......W [ #.M %.$.I I W M %.M M #.[ R o.[ :.$.l B L B / "
};
