/* XPM */
static char *_cd8f9498abe4f6df02834e4e9e5c390aVH0PSVf7v77YKB2[] = {
/* columns rows colors chars-per-pixel */
"64 64 256 2 ",
"   c #3D3F3A",
".  c #594E3B",
"X  c #5C523E",
"o  c #534D33",
"O  c #68572D",
"+  c #6C5433",
"@  c #67563B",
"#  c #725B3B",
"$  c #765A35",
"%  c #6C522F",
"&  c #7C623B",
"*  c #796439",
"=  c #6C643B",
"-  c #403B4F",
";  c #3B484A",
":  c #394952",
">  c #364B55",
",  c #3C4E65",
"<  c #454B4B",
"1  c #484948",
"2  c #534C43",
"3  c #544E4B",
"4  c #49534A",
"5  c #54544A",
"6  c #5B5A4C",
"7  c #585646",
"8  c #444C53",
"9  c #444A56",
"0  c #4B5554",
"q  c #485458",
"w  c #5D5C54",
"e  c #565755",
"r  c #5A4E51",
"t  c #635B45",
"y  c #635C49",
"u  c #695844",
"i  c #725D45",
"p  c #635954",
"a  c #715F53",
"s  c #5C635B",
"d  c #5E614C",
"f  c #6B644C",
"g  c #6B6447",
"h  c #736344",
"j  c #72654B",
"k  c #7A6948",
"l  c #656253",
"z  c #6B6453",
"x  c #64655C",
"c  c #6B6959",
"v  c #746C53",
"b  c #7B6C53",
"n  c #736B5B",
"m  c #756656",
"M  c #7C7354",
"N  c #79745A",
"B  c #77714F",
"V  c #505467",
"C  c #58646D",
"Z  c #6A6963",
"A  c #756D67",
"S  c #7B7564",
"D  c #7C7A64",
"F  c #777969",
"G  c #7D7C71",
"H  c #6C7661",
"J  c #855A2A",
"K  c #805F32",
"L  c #896229",
"P  c #886838",
"I  c #946C3A",
"U  c #95733B",
"Y  c #8C7037",
"T  c #846C44",
"R  c #876C49",
"E  c #8A7244",
"W  c #8C734C",
"Q  c #87764D",
"!  c #9D7A45",
"~  c #937B4C",
"^  c #9B7C4B",
"/  c #967446",
"(  c #846B55",
")  c #847253",
"_  c #847B5D",
"`  c #8A7B5C",
"'  c #897757",
"]  c #967B56",
"[  c #916E46",
"{  c #A67D47",
"}  c #8B7D62",
"|  c #857965",
" . c #937C65",
".. c #867776",
"X. c #9D814C",
"o. c #95854A",
"O. c #8D8057",
"+. c #94845D",
"@. c #9C845D",
"#. c #988253",
"$. c #A7854C",
"%. c #A48554",
"&. c #AB8C56",
"*. c #A38B5B",
"=. c #A98C5A",
"-. c #A58856",
";. c #B18B55",
":. c #AA935A",
">. c #B3955C",
",. c #8D8264",
"<. c #888369",
"1. c #9C8B63",
"2. c #968869",
"3. c #888476",
"4. c #978C78",
"5. c #97927A",
"6. c #919272",
"7. c #A68C65",
"8. c #AD9363",
"9. c #A9956A",
"0. c #B49464",
"q. c #B49D64",
"w. c #BB9B64",
"e. c #B39B6B",
"r. c #BA9C6C",
"t. c #B79568",
"y. c #A39374",
"u. c #A89978",
"i. c #BC9D72",
"p. c #B39C74",
"a. c #BCA36C",
"s. c #B8A269",
"d. c #BCA374",
"f. c #BDA973",
"g. c #BDA579",
"h. c #BDAA7A",
"j. c #B4A678",
"k. c #B1A779",
"l. c #C19D6C",
"z. c #C19D79",
"x. c #C3A36D",
"c. c #C7A669",
"v. c #C3A574",
"b. c #C4AA75",
"n. c #CAAB74",
"m. c #C2A57B",
"M. c #C4AB7B",
"N. c #CAAC7C",
"B. c #CAA577",
"V. c #D2AE7C",
"C. c #C5B17B",
"Z. c #CBB27E",
"A. c #C9B476",
"S. c #D2B47B",
"D. c #8A8A81",
"F. c #9B9988",
"G. c #989387",
"H. c #A69984",
"J. c #A99D8B",
"K. c #ABA388",
"L. c #B5A484",
"P. c #BAAC8C",
"I. c #B8A887",
"U. c #AEA893",
"Y. c #B8AB95",
"T. c #BBB296",
"R. c #BEB28C",
"E. c #B6B5A7",
"W. c #C4AD83",
"Q. c #CAAD82",
"!. c #C5AB87",
"~. c #C5B283",
"^. c #CBB383",
"/. c #C5B48B",
"(. c #CBB48A",
"). c #CEBA8C",
"_. c #CDB985",
"`. c #D1B485",
"'. c #D4BC86",
"]. c #D2B58C",
"[. c #D3BB8C",
"{. c #D9BB8A",
"}. c #C3B493",
"|. c #CDB693",
" X c #CDBC92",
".X c #C2B59A",
"XX c #CCBC9B",
"oX c #C5BA99",
"OX c #D3B692",
"+X c #D3BD93",
"@X c #DABE94",
"#X c #D3BD9B",
"$X c #DABD9A",
"%X c #D7B79A",
"&X c #CAAE97",
"*X c #E3BC8E",
"=X c #CBBDA3",
"-X c #D8BEA4",
";X c #CDC28D",
":X c #D4C18E",
">X c #DBC38D",
",X c #D6C78B",
"<X c #CEC195",
"1X c #CDC39C",
"2X c #C5C298",
"3X c #D5C295",
"4X c #DBC395",
"5X c #DAC995",
"6X c #D5C39B",
"7X c #DAC49B",
"8X c #D5C99C",
"9X c #DCC99D",
"0X c #D4C994",
"qX c #DBD09D",
"wX c #E3C495",
"eX c #E1C49C",
"rX c #E2CB9C",
"tX c #E4CC96",
"yX c #E4D49D",
"uX c #CCC6A6",
"iX c #D5C4A2",
"pX c #DBC5A3",
"aX c #D5CAA4",
"sX c #DCCAA3",
"dX c #DCC5AB",
"fX c #DCCBAA",
"gX c #D6C7AA",
"hX c #DDD1A3",
"jX c #DDD2AD",
"kX c #DDCEB2",
"lX c #D4C8B0",
"zX c #DCD3B4",
"xX c #E2C6A3",
"cX c #E2CCA3",
"vX c #E3CDAB",
"bX c #EACCA9",
"nX c #E3D2A5",
"mX c #EBD2A4",
"MX c #E4D3AB",
"NX c #EAD3AC",
"BX c #E4D9AD",
"VX c #E9DAA9",
"CX c #F2D8AB",
"ZX c #E3CEB2",
"AX c #E8CBB5",
"SX c #E5D3B3",
"DX c #EBD4B3",
"FX c #ECD9B3",
"GX c #ECDDBB",
"HX c #E6D7B8",
"JX c #F2DAB5",
"KX c #F0CEA0",
"LX c #EDE2B8",
"PX c #F0E0BE",
"IX c #ECDDC3",
"UX c #F5E6C3",
/* pixels */
"W.7X7X+XeX@X4X3X7X6X7X7X@X7X+XvXu.2.'.xXnXsXaX@X6Xm.i P.fX5XaXaXNX8XMXnXvX(.s. .oX}.#XvXaXpX7X8X6X!.b q.#X<X4X0XsX#X].4XsXsX+X@.",
"M.h.sXvX@X@X@XsX@X@X7X9X7X7X7XmX` ,.v.(.cXcX6XrX7Xg.' aXfX3X7X4X7X9XsX9XcX(.q.` 3XnXsX8X4X9X6XsXvX4X` N.#X3X@XsXcXg.e.b.^.4X>XX.",
"B.d.W.6XpXxX7X7XwX4X7X#X#X7X4X(.j | v.m.~.xXsX@X4X9.Q 9XpXpXvXxXpX9X7X8XpXvX'.( }.aXaXaXiXvXvXiXgX:XM #X$X3X7XkX^.i.v.g.q.s.b.$.",
"v.Z.d.^.+X#X7X@X@X7X6X6X6X+X`.>.g b v.M.g.@XsX@X@X9.Q 9XZXNXpX6XiX8XsX9X#X9X5X) p.sX7X7XcX4X).].fX:Xg oX9X3X+X|.v.v.d.d.B.b.i.] ",
"e.v.b.M.g.W.^.'.6X7X8X6X).B.n.$.g b n.B.b.].8X3X$X6.j rXHXMXMXhXvXsXiX8XfXpX0X} p.MX7X4X9X^.d.f.<XeXf u.wX(.^.f.r.g.b.d.v.v.i.] ",
"+.M.b.f.g.g.b.b.).3X+X^.m.n.n.$.y b n.Q.f.^.sX3X{.N t 4XSXfXDXzXvXMXMX8XpX6X5X| /.SXpX7XOXQ.Q.M.f.cXH D tX#X^.c.N.v.M.v.c.x.e.Q ",
"u p.Z.v.M.b.B.b.M.^.^.N.B.N.i.~ x l e.(.B.M.6X+X&.7 w 4XDXvXbXZXNXCXFXmXvXNXnX .8.^.d.8.=.^ X.w.b.wXF s W.|.d.;.>.=.:.&.$.%.O.f ",
"2 b g.r.r.m.r.x.w.>.-.&./ P $ % ; < # R #.^ ~ P # : q 8.p.&.$.&.8.b.W.Z.m.e.*.j ~ E % $ $ $ $ P >.c.F 8 + h & [ U U U L P # 5 9 ",
"V 1 M *.^ E # @ t O O X 1 e s G 4.H.U.Y.T.T.L.y.D.3.F v u w u @ h * * h R ' ) h 2 9 , , 0 0 3 5 z n c z n S N v y w _ *.` u.Q.#.",
"7 U.aXrXxXiXL.( < G =X=X=XoX9XcXMXhXhXhXsX9XhXMXKXmXpXNXP.; Z E.pXpXpXpXsXvXMXfX3X3.e 5 6 | 2.+.X.%.8.d.N.^.'.'.4.2 P.CXfXvX].1.",
"7.nX4XxXSXZXGXHX5._ BXMXdXpXcXpX3X6X4X4X9X8X7X8X3XaX8XNXM.6 W.FX6X7X7X7X6X8XaXaXrXFX}.j R B.N.B.v.i.M.@XwXwXwXwXjXS P.rX3X(.v.' ",
"N.9X7XNXvXsXaXhXDX] ).9X6X8X8XiXpXfXfXpXpXfXvXvXsXaX5XvX=.y ^.wX X X X#X+X+X+X+X$X).nX+.Q b.n.Q.N.h.(.8X8X8X3X XnXU..XmX).B.0.@ ",
"W.@XpXvXsXMXxX9XvX} 1.3XcX9X9XsXpX6X6XxX9X).M.h.4X7X4XvX8.6 9.sX+X X#X6X3X3X3X+X+X).sX) 7.^.a.b.f.^.9XMXcXsXcXsXrXP.XXbX~.N.%.@ ",
"N.9X6XsXcXsXvXAXhX' O.0XpXpX7XpX8XsXcX4X^.f.f.C.M. X3XcX].l 7.9X+X#X6X7X6X6X4X4X@X4X4XW 8.B.v.N.OX7XvXvXpXvXvXvXmXT.iXxX6X_.$.u ",
"q.4XpXsXcXcXvXvX9X( u.VXiXpX5X8X9X3X(.m.M.Q.N.f.x.N.).9XxXc 1.+X[.@X6X6X6X6X6X6X#X9X'.Y :.[.7X$XcXcXsXsXaXsXcXsXcXK.|.4XfX:X:.@ ",
"e.3XvXdXsXcX9X3XZ.( u.5XpXpX4X).b.b.v.i.t.0.w.v.B.M.I.^.cX_ ^ Z.+X@X6X8X8XaX8X3X0XsX(.P 8.vX6X9X7X7X7XsXvXcXxXvXvX} /.cXgXrXq.@ ",
"y.n.4XSXcXpX4X6XS.c +.;.=.X.^ R I L J L J J & L ~ s.s.N.S.<.~ S.3X3X7X#XcX+X9X9XaX8XB.& 1.*X6X8X4X9X3X8XqXsXsXsXrXx Y.nXiXsXb.O ",
"` l.W.pXbX7X7X6XV.x j %.#.W T W | +.2.N m y 4 7 % R ` ] ~ c 2.OX).+X6XnX].d.d.N.[.MXg.h k >.`.Q.].].OX].$XbXvXDXP.; 5.rX8XvXOXi ",
"M x.h.W.4X7X7X XB.6 2.$X#XpXSXGXHXJXDXzXkXy.6 4.L.p.2.R Q S y.xX[.3X4XrXb.d.r.d.a.Z.s.f 1 O ) -.&.q.a.0.V.rXmXrXG ; F.CX0XrX{.Q ",
"j v.N.d.'.vX7X6Xg.d XXvXgXsXfXsXSXsXvXMX(.w.) 0.3X9XsXcXVX1Xu.tX X4X3X^.d.g.b.a.W.z.w.p C F A } ' k k Q ~ #.y.2.5 ; 3.P.,.N _ l ",
"l r.b.f.^.sX+X9Xe.B sX7XpX9XaX9XfXsXMXsXh.s.b %.m.~.#XxX4X6X4.4X X X^.g.g.d.v.b.x.v.:.} gXyXbXcXnXT.p r 4.K.j./.XXuXuXXXT.E.H.c ",
"c v.b.B.B.6XrX4X7.,.9X8X4X4XaX4X4X4XrXsXcXb.7 k l.M.Q.9XpXsX<.(.3X+Xh.d.m.v.d.v.b.B.*.7.NX^.OX X>XvXY.v BXqX9XvXcXSXMXJXJXcXC.>.",
"s w.B.B.N.6XrXN.b ` 4XcXaX9XfX7X9X3X8XaXkX).x o ;.C.g.3XaX9X| u.4X[.v.r.x.v.x.w.>.w.~ O.8XXX X2XOX7XW.k.aXxX7X7XpXaXpXpXxX@XM.;.",
"5 / v.v.M.W.d.^ X } cXfXBXcXiXpX6XsX9X6XxX>Xn + $.C.W.9XsXBXD.h =.%.^ ! ! U ! U U [ r } 9X%X*X X#X5Xf.e.vX-XfX8XpX3X8XaX8XhX8Xt.",
"8 5 @ h P E W E y D NXkXvXvXrXfXpXtXsXaXgX9XM # $.Z.4XsX$XVX3.- 3 7 h T [ E T h w q ; M c.~.XX@X'.*Xs.p.mX9XvXwXaX7X7XsX7XsX7XI.",
"x U.p.9.a.).7X(.' N xXVXBXSXMXjXvXrX3XsXnX4XN + t.6XaXgXpXBXN A Y.Y.}.XX#XiXiXuX}.H.j ) n.v.I.'.oXeX2.u.MXjXSXfX9XxX9X7X7X9X9X^.",
",.BXvXnXrX3X+Xb.X.v wXMXpXvXNXhXSXZXsX3X1XrXF i i.iXaXaX9XxXN |.yXyXrXrXxXsXMXMX4X'.] 2.].B.g._.<X>X) 7.CXfXvXDXvXNXfXsXaXaX4X(.",
"u.nX#XxX[.M.M.r.b w 4XIXHXVXSXHXBXvXMXsXsXmXA O `.pX9X9X9X#XD {.AXdXpXpX4X7XiXiXaX9X1.y.+XQ.~._.|.{.b } JXzXjXzXNXDXMXfXfXsXrX4X",
"I.cXsXiXh.M.B.U 3 w '.+Xr.w.B.OX5XDXNXcX}.m.n * '.aX3X8XsXY.x 4XHXkXfXsX8X8XaXaXpXsXk.u.4X|.XX[. X'.c ,.vX#X'.OX7XcXSXGXSXaX+X^.",
".XaXfX6Xg.M.B.L X 5 W & P P I Y ^ ^ / / [ I i X.'.CXrX6XVX=X5 {.VXMXSXGXHXSXcX7XeXcXL.1.rX+XXX].#X+X6 c @.W Y Y Y / %.=.-.^ ^ [ ",
"iX8XsXcX[.M.r.L 2 s | 3.H.G.,.= 5 g N | S g 4 Z 2.,.' H.#XH.2 i.Z.M.g.M.).7XcXvX7X].y.D |.'.^.M.x.i.w q < 0 0 e N _ _ } _ N z o ",
"XX9X4X9XrX(.g.U u U.CXnXVXHXR.5 A 3XSXMXjX7XF.p : : < < 5 Z C |  .' ) ) ) b j y 7 @ 2 8 v ! $.X.#.@ : , q 4 1 3.vXcXrXcXNXDX=X4.",
"P.xX5X8XiXsX^./ u }.vX7X7XsX}.h W.cX9XcXsXvXMXgXS K.}.T.oX2XlXfXhXgXfXuX=X;XH V G 3.G.H.H.}.+XM.5.D.Z e 4 0 1 5.pX).3X X X).4XpX",
"F.sX8XaX7X9X'.! @ 1XhX8X3XhX1X_ +X9X7XvXsXsXfXGXP.u.nXcX7X3X7X9X-X7X4X3XAX9Xv 4.NXcXcXMXfXvXfXfXyXvXvXgXXXgXH.] 9X[.4XsX8X+X3X(.",
"A hX8XiX9X4X4X&.. oXvXvXxX6X6X2.+X3X9XvXvXfXaXMXoX} #X6XaXsXfXsX#XC.M.R.#XxX<.b 8X8X7X3X4XaX6XsX5XiX7XpXaXDXJ.R [.+X#X8X3X7XrXv.",
"e pX#XdXbXcXdXt.u .XGXNXNXNXfX2.].9X9XsXsXvXcXDXW. .3X4X+XW.g.t.=.=.t.j.m.tXL.R 7X9X4X^.`.@X4XxXsXgX8XsX8X+XM j `.+XpX8X<XpXxXr.",
"Z sXMXsXC.:XqX>.Q 7.p.e.N._.e.~ ^.9X9XvXsXpXvXFX~.m ) & & * T T ( k i k ] @.| 9.nX+XW.b.d.h./.8X7XvX9X4X4X:Xf D 4X4X7X~.s.I.].q.",
"e u.2.v j c Z n l y 7 7 7 t o n W.rX9XvXsXsXsX6Xj.p 5.L..XiXiXfXjXhXsX2X.X| < U.4X~.N.N.v.a.a.f.V.'.>XeXxXcXN Z rX+X].b.g.i.m.=.",
"V 1 H..X=X1X2X X=XiXXXiXXXoXy.v N.9XxXsXaXsX7X+Xq.m gXnXcXxXvXNXHXMXDXnX'.t.y k.B.r.=.Y K L P I ^ ~ #.9.i.v.b p 4X[.M.v.b.v.v.7.",
": D UXsXcXxX9XeX4X9X9XsXsXBXGX` =.M.9XDXvX7X+X9X:...zX0XaX7XsX8X0XhXAXaXq.8.w y ' 2.<.c 6 3 1 3 7 5 7 5 y B 6 : p.^.w.0.w.>.:.R ",
"1 U.BXOX@X4X@X7X4X+X$X+X3XrXrX_ @.b.M.pXMX4X@X>X8.e.cX8X7XsX7X9X8X8X7XnX#X9.p y.6XsXvXfXfX.X4.5 V : ; < e e w p f k T Y P * 6 8 ",
"c zX3X3X4X4X3X6X#X6XpX8XaX7XcX| ] b.v.(.9X6X6X@X*.7.sX7XpXpX4X9X8X7X7X9XvXd.D 4X7XpXNXvXsXHXIXT.  3.T.oX1X X;X:XoXXX#X).^.I.4.2 ",
"H.pX4X$X-X#X7XiX@XwXeX@X3X@XmX5.' M.b.m.4X9XiX+X1.7.nXMXNXvX8X6XaXsXpX<XnXC.,.>XeX7XsXsXsXxXFXI.y kXUXDXNXbXvXbXNXMXSXSXFXPXSX_ ",
"g.s.'.wXpX9X4X4X7X4X$X4XsX9X'.v ` N.b.g.+X9X7X+X` 1.nXMXSXvXaXsXaX6XvX8X9X'.,.A.xXcXsXfXvX9XcXp.A zXpX+X4X9X3X4X@X+X3XXX6XvXFX1.",
"p.C.a.^./.).).3XiX8XpX3X/.Q.8.f ] C.b.!.OXrX3X'.n 2.FXNXvXMXMXSXcX7XpXaX8X).N d.].sXMXsX7X+X4X*.F.HX#X3X4X3X3X3X4X7X7X6X7X7XMX1.",
"( M.b.m.m.m.N.Q.9X:X{.'.^.V.$.u ) C.N.m.W.rX@Xf.e _ nXvXZXMXnXfXMXMXiX8XsX7Xa 7.d.W.3XfX4X3X3X@.P.MX@X4X$X-XpXpX#X8X7X@XrXrXNX2.",
". ` b.B.v.a.a.t.8.8.7.%.W W $ 2 f 9.M.Q.Z.>Xm.~ 8 N nXNXSXBXBXDXjXDXvX9XsX9Xp 2.N.g.W.4X7X@X/.1.iXpX7X4X4X4X4X@X7X7X7X3X9X4XsXy.",
", ; o y X t f n b } 2.<.G A x C p h E ^ X.~ W # 8 N nX7X}./. XvXSXSXDXnX+X~.7 ,.N.B.v.[.wXxX/.y.nX3X3X+X6X#X7X7XeX@X8X7X3X#XvXL.",
"D H.5.<.5.Y.uXgXsXMXBXBXBXMXsX8XXXP.P.b 0 0 0 9 8 c +.! I I / ^ 0.l.:.7.{ E 1 j 0.g.v.B.'.c./ u.+X9X6X6X7X6X9X+XpX6X3X4X$X@X9XI.",
"}.JXSXBXNXbX9X4XpX7X7X4X4X4X7XaXcXnXLX1.1 1 e e 0 e l f m M k = O @ @ h k N x Z ( Q +. .) f r u.N.+X9X4X#X@XrXrX+X7X9X7X$X3X9Xu.",
"y.4XiX6X6XpX4X7XsX7X7X9XcXxXxXxXdX8X9X~ S =XXX1X#X#X6X1X1XXX(.W.H.Z G SXaXfXsXpXfX3XaXgX9XF.9 k.g.^.4XrX9X7X6X#X4X7X+X+XpX9X).' ",
"v ^.sXaX8XpXsXaXaXsXvXxX@X).+X9X9X9X:X~ 2.vX4X).4X@X3X:X<X6X7X7XCXu.y.NX4X7X{.4X3X>X9XiXtXuXZ 0.N.v.N.].@X7X7X4X@X7X4X4X$X`.q.T ",
"t v.wX8XcX7X4X7XsXsX4X(.g.d.M.(.4X9XaX7.M s.4X@X3X8XsXsXpXaX3X<X@X#.J.sX4X#XaX7XiX$X@XOX@XMX5.%.N.g.g.b.M.W.(.3X7X6X3X].m.n.&.[ ",
"w f.9XiX8X7XsXxX8X+X~.b.B.M.b.d.(.#XkX!.M A.'.].3X6X4X`.N.^.[.8X4Xk 5.sX@X#XsX@X-XpX>X9X-X(.j.) b.N.B.B.v.d.m.^.4X+X~.b.m.S.$.T ",
"s _.NXkXsX7X X(.^.N.v.v.v.v.B.Z.a.^.8XOXv 6X@X-XaX XW.v.a.a.d.I.c.T T v.^.4X#X8X7X(.A.^.I.n.g.7 7.M.M.v.b.b.N.N.Z.^.N.N.B.r.] z ",
"w q.a.W.x.r.&.;.-.^ I I I / %.0.N.B.+XOXz 9.9X3XA.x.v.v.b.v.x.x.w.A # %.p.q.x.~.b.B.B.W.M.c.( q * e.b.v.x.r.r.8.&.-./ [ R + @ r ",
"t 1.^ P + % K & L $ + # @ o + & ;.>.:.9.z 2 N | ' Y [ R R h * t 0 < < 1 5 w l z j g f c l 5 1 < 1 0 g # + u + u @ u @ X . 1 8 q ",
"q 6 ,.K.T.}.}.R.^./.}.}.P.I.k.Q w e p c Z s 4 ; : q F 3.3.D G D.y.K.P..X.XXX6X#X.X.XT.P.I.K.H.H.3.q 1 ..T.oX~.|.#XiXgXfX.X3.w 1 ",
": x HXUXGXNXnXMXBXMXMXBXSXLXLXaXw Z .XvXdXfXaXU.F 3 u.VXMXmXNXvXnXcXcXcXcXsXsX7XNXvXcXxXcXnXcXNX(.y S FXyX8XrXxX4XxX9X7XNXGXuX4.",
"; 3.JX@X].wXwX:X#X6X#X@X$X7XvXFXN I.rXwXbXcXMXMXHX4.g k.8XpX3X6XaX8X8XaX8XaXaX8X+X).+X4X9X4X7XMX>.u } eX4X#X!.3X].).).[.[.).7X6X",
"; U.NX@X#X7X9X6X$XpXeX@X@X4X9XcX+._.4X4XsXfXSXaXvXvXm 9.9X-XrXiX6XaXsX9X9X9X+X^.M.h.g.g.~. X6XfX>XN b @X[. X3X;X6X7X7X+X).].9XN.",
"0 uXaX6XpX7X7X6X6X@X7X4X@XsXcXsX%.^.xXiXsXsXsXcXZX<Xm h.tXpX5XdX4X].N.N.B.l.t.0.w.w.x.n.n.V.`.OXmX4.m +X8X/.7XdX7X6X8X6X6X@X9Xg.",
"c fX4X4X#X@X@X7X9X@X9X8X6X6X4XsX1.g.dXdXMXhXfXvXDX,Xv M o.] Y R T * & & $ $ + # # + # & / -.8.p.s.1.k m.#X'.4X[.6X6X8X8X7X3X9Xe.",
"G.SX4X7XXX7X4X3X@X4X7X+X7X7X@XxX9.q.4XeXrX9XZX7X$XA.y A u.u.L.L.Y.T..XY.U.J.G 4 q q q e F 5.<.z V 4 g a.|.:X<XuX4X5X8X3X3X6X9X8."
};
