/* XPM */
static char *d1d11ce2e0b54635c3bfe4ad07cbafb8oHsT4YYRq9pg0iLW[] = {
/* columns rows colors chars-per-pixel */
"64 64 251 2 ",
"   c #3D3D22",
".  c #647B1E",
"X  c #6B7C28",
"o  c #747C26",
"O  c #7A7A28",
"+  c #7B7D2B",
"@  c #6C753D",
"#  c #787C34",
"$  c #57305B",
"%  c #4A4F4E",
"&  c #747A4C",
"*  c #68596D",
"=  c #847E2D",
"-  c #8C7C2E",
";  c #977F2F",
":  c #897C32",
">  c #947E34",
",  c #8E7E43",
"<  c #A3645C",
"1  c #D97D5A",
"2  c #FB774C",
"3  c #EA7C59",
"4  c #FB7654",
"5  c #F57A55",
"6  c #F87856",
"7  c #F5765B",
"8  c #FB745B",
"9  c #F47A5C",
"0  c #FA7B5A",
"q  c #D67C67",
"w  c #EA7B68",
"e  c #F47663",
"r  c #F37A63",
"t  c #F87865",
"y  c #E47D72",
"u  c #EB7976",
"i  c #F27776",
"p  c #67871D",
"a  c #718C1F",
"s  c #6C8424",
"d  c #668927",
"f  c #6B8C24",
"g  c #6C842B",
"h  c #6D8C2A",
"j  c #738525",
"k  c #7A8426",
"l  c #738C25",
"z  c #7B8C26",
"x  c #74842A",
"c  c #7B852B",
"v  c #748C2B",
"b  c #7C8B2C",
"n  c #6C9324",
"m  c #6E9A24",
"M  c #6D922B",
"N  c #749325",
"B  c #7A9426",
"V  c #749C24",
"C  c #7B9B26",
"Z  c #75932B",
"A  c #7C932C",
"S  c #759B2A",
"D  c #7B9B2B",
"F  c #6B8933",
"G  c #7C8632",
"H  c #748D32",
"J  c #7C8C32",
"K  c #798837",
"L  c #6E9432",
"P  c #749533",
"I  c #7C9332",
"U  c #7C9B32",
"Y  c #789837",
"T  c #78A528",
"R  c #7CA22C",
"E  c #7DA332",
"W  c #788446",
"Q  c #7B8F4C",
"!  c #7FA342",
"~  c #828927",
"^  c #83842D",
"/  c #8B842E",
"(  c #838C2D",
")  c #8A8C2E",
"_  c #829A25",
"`  c #83932D",
"'  c #8B922E",
"]  c #839B2D",
"[  c #8A9A2E",
"{  c #91932F",
"}  c #848432",
"|  c #8C8533",
" . c #848C32",
".. c #8B8C33",
"X. c #87883B",
"o. c #8D8C3A",
"O. c #938534",
"+. c #9B8735",
"@. c #938C34",
"#. c #9A8B36",
"$. c #94863A",
"%. c #9C823B",
"&. c #948C39",
"*. c #9B8C3B",
"=. c #849432",
"-. c #8B9333",
";. c #849A32",
":. c #8B9A33",
">. c #85953B",
",. c #8C933A",
"<. c #839C3C",
"1. c #8D9B3D",
"2. c #939334",
"3. c #9A9435",
"4. c #929A35",
"5. c #9B9B36",
"6. c #94933B",
"7. c #9B923B",
"8. c #939A3B",
"9. c #9B9B3A",
"0. c #A58B3D",
"q. c #A2963B",
"w. c #83A32C",
"e. c #88A62C",
"r. c #8DA62E",
"t. c #84A333",
"y. c #8BA333",
"u. c #88A637",
"i. c #94A237",
"p. c #A6B03F",
"a. c #888844",
"s. c #968C47",
"d. c #899644",
"f. c #979646",
"g. c #938956",
"h. c #999B55",
"j. c #A88746",
"k. c #A69645",
"l. c #B18A55",
"z. c #A79857",
"x. c #88A345",
"c. c #96A749",
"v. c #99AF53",
"b. c #9AA658",
"n. c #A5A646",
"m. c #A8A65A",
"M. c #948F66",
"N. c #B39166",
"B. c #B1AE73",
"V. c #DF815E",
"C. c #F2825E",
"Z. c #DB846A",
"A. c #CF8A70",
"S. c #DA8975",
"D. c #E88566",
"F. c #F3846A",
"G. c #E48572",
"H. c #F68C75",
"J. c #EB947B",
"K. c #C1AD78",
"L. c #72348F",
"P. c #5C37B6",
"I. c #5739B5",
"U. c #5B35BD",
"Y. c #6835A6",
"T. c #6338B9",
"R. c #334CB3",
"E. c #534B8D",
"W. c #694495",
"Q. c #4741BB",
"!. c #534CB3",
"~. c #6B52B4",
"^. c #7662BB",
"/. c #3F3ADE",
"(. c #3D3AED",
"). c #3D3AF4",
"_. c #3E36F8",
"`. c #3E39FB",
"'. c #4A3CC8",
"]. c #5737C5",
"[. c #473BD7",
"{. c #5337D5",
"}. c #663AC2",
"|. c #443AE4",
" X c #4736E8",
".X c #423AEB",
"XX c #4336F5",
"oX c #4138F5",
"OX c #4335FA",
"+X c #4637F8",
"@X c #2C4AD0",
"#X c #4845C7",
"$X c #5146CD",
"%X c #6B56CC",
"&X c #6655E5",
"*X c #8E4891",
"=X c #B77196",
"-X c #8D4DAC",
";X c #8B52AC",
":X c #A85EB0",
">X c #9E63B9",
",X c #9270B2",
"<X c #B46BAB",
"1X c #AF6EB3",
"2X c #D27693",
"3X c #E47A86",
"4X c #E17897",
"5X c #CF7DAB",
"6X c #A55EC4",
"7X c #8B72CA",
"8X c #B674C9",
"9X c #A978D3",
"0X c #C16FCC",
"qX c #B6B684",
"wX c #D68E8C",
"eX c #EA9986",
"rX c #D3BB95",
"tX c #E6A58C",
"yX c #F9B59D",
"uX c #C5B0B3",
"iX c #F9BCA6",
"pX c #F6B5B0",
"aX c #D5C39C",
"sX c #D4C4A5",
"dX c #D3D0B0",
"fX c #E8C8AF",
"gX c #FDC4AC",
"hX c #F7C9B6",
"jX c #FFCBB4",
"kX c #FECDBC",
"lX c #FAD2B7",
"zX c #FCD0BD",
"xX c #AB90C3",
"cX c #BEA3D7",
"vX c #DEB6D5",
"bX c #E3B7D5",
"nX c #C2A9EC",
"mX c #FCCDC2",
"MX c #F8CDC9",
"NX c #EAD5C7",
"BX c #F5D2C3",
"VX c #FBD1C1",
"CX c #F3D4CA",
"ZX c #F0D0D5",
"AX c #DCE0CB",
"SX c #EEE3D2",
"DX c #EACDEC",
"FX c #F4CDE7",
"GX c #ECEDE3",
"HX c #EFF2E4",
"JX c #FCFCFA",
/* pixels */
"B z 2.$.| -.&.b K D ^ 5.q.] N Z :.:.` ^ A p.e.z b s A o } + # -.2.3.-.O.= b ( b ..^ b o.o ( ( ] 5.7.| -.@...b / 9.=.N v ` ` N N ",
"w.B z [ N T C D B j ^ ( 4.i.b n A w.C ' ,. .c l ( U -.| | > : : 7.5.&.- #.@.} ^ = O.9.4.c -.-.} 4...;.`  .K b O.b  .-.b C f A u.",
"B =.` ` N T C ( l k ( z 4.8.X N b z t.y.4.| -.l N v l.Z.y y y Z.Z.Z.Z.A.*.| o *.*.3. .:.` ` .. .-...b N b b 4.] ( =.:.` ` D D ;.",
"l ) ) ' j l D Z C ' ../ b ` ;.D v g b =.' ( ^ } A ..Z.r e 7 e 9 3 r r w 0.= b #.| ..O =.i.` ( ....( B A c -.-.-.z ;.;.;.E D Z S ",
"=.i.7.' } G ` B N -.2.^ ' G K c Z g l _ B z j.A.3 3 3 7 7 4 4 6 7 8 8 r V.1 Z.A.| | ^ #.( ) ....c ~ -.} ..c >...b A U D M S S Z ",
"-.@.( X.-.J b B ..9.4.` B ` ] =.v D ] b ` ( j.w 6 5 6 6 6 6 6 6 6 8 4 6 9 9 e w ( } c B z '  .= } ..2.*.*.-.^ b =.b =.U S h A b ",
"B C C v N B :.i.q./ b N m I D ,.N U b ` $.A.Z.3 5 6 7 6 4 6 t w w i t i u u i y N.f.A v ( -.( b ;. .^ 0.| } ..I =.b H P Y U =.] ",
"v C r.S z C ` 2.9.| ` A M S A =.u.X B ;.s.w r t 9 8 6 0 4 0 y =X<X<X<X<X1X<X<X=XwXs.:.A ( A y.A Z | k.3.:... .X.d.K g F L P t.h ",
"B _ D V l ( ~ ( _ ` D m f j b g ` k ( ;.> D.7 t 7 7 7 0 2 0 3XL.T.U.U.U.U.P.I.L.5Xs.x l l _ -.O c } = ..x.c  .X.Y K H F d P t.Z ",
"U x.A B A ` a b ` B B n P D b  .-.@.( ^ > 3 0 8 0 t u 3Xu 3X5XY.].].].].].}.].Y.5Xa.b t.l D =.b &.b v U =.6.c v X F F Y P v U v ",
"v D C R t.] ` 2.f e.x S f J f...*.7.o.Z.C.0 8 t r 2XL.].].U.L.5X3X3X3X3Xu 3X2X5XL.W =.O b x.=.=. .=.I H b  .| G H g P Y L h Z Z ",
"N B S E D  .O ^ ;.. K B u.` | ~ +.` | r 4 2 w 4X4X1XY.U.].T.L.3Xe e 7 7 4 7 q 2X* , =. .A D A c. .` I h =.=.,.G H H Y Y P P v v ",
"c.l E g Z v G ^ c X X d.4.-.( =./ | = u i w 2X*X*X*X1X1X<X<X2Xi e e e 7 7 3 yXpX=Xs.=.:.>.t.Z c c ;.A b X.I ,.J J K Z Y M P <.S ",
"J A M F S y.e.| b o c b ' ^ ^ ) | O.$.<X<X1X:X*X*X< 3Xu u u r r F.J.J.eXJ.J.jXkXwXs.| =.&.( A y.&.,.i.,. .E =.J I + G  .Y t.S D ",
"D x U n Z T V -.b s.+.[ 3...@.7.&.| g.T.U.].-X4X4X3X7 8 e 9 5 0 F.gXjXjXjXjXzXkXMXh.: c I A U n / ( :.b G } D U I 6.} o.;.:.S A ",
"c s ] D R S ] z ' 8.@.0.@.[ 4.@.O.$.@ T.}.T.*Xu i 7 4 6 r 9 7 F.J.jXjXgXjXkXgXgXBXh.c =.;. .Z C | d.+ b  .j.G I b ,.7.c.| A =.A ",
"^ A S D Z C _ j ` B 6.3.2.@.2.b a.* W.5X3Xy w 7 6 5 5 0 0 t G.jXjXkXgXS.pXmXD.D.kXm.=.` ^ z D b :.( } ,.$.k. .Z M  .7.8.6.c J ^ ",
"y.d.D S z l p C ] C :.k ' [ 2./ o.E.W.3Xr 3 5 8 8 5 5 C.C.t G.jXlXjXiXG.iXjXD.D.jXz.b =.=.=.I Z t.=.-...-.=.:.C D v ` @.b b -. .",
"B s  .Z 1.c.y.C _ B ` ' 2.^ +.0.G % $ 3Xr 9 6 6 8 6 5 H.yXH.F.gXjXkXiXS.gXjXZ.Z.kXz.-.A 2...`  .x c  . ...A A C e.S S S U U ^ =.",
"j v  .:.r.w.] C ` _ 4.7.D c.B.B.k.B.B.q 7 2 2 6 8 6 9 eXjXH.F.jXkXkXjXtXhXjXtXtXkXh.b J A `  . .O.X. .z N l r.S Z h Z D y.w.` A ",
"A >.g D D C w.w.B ~ / ~ B m.JXdXd.JXSXq 7 4 4 7 8 6 9 J.jXF.D.jXmXkXkXjXzXkXjXjXmXh.G C D ` b &...6...2.] N T R A B m S C e.b A ",
"b s g A e.w.C ~ C ~ ' _ z h.HXdXb.HXSXwXH.t 7 t 8 7 9 H.yXJ.J.jXkXkXjXjXkXVXkXjXVXc.` z D v b A U :.2.9.S l S A R c S D S f =.` ",
"A C A H _ e.z ` o ( b l N ` v B.HXB c.JXCXG.r 7 8 7 t t F.gXkXkXkXkXkXkXmXkXkXkXCXh.:.A ,.o.( Z c ( ^ 2.^ [ N n R D D v V E ` ` ",
"A S l x X A b } ..B B V l e.C B.GXb d.JXZXwXD.7 4 4 6 0 9 iXkXmXkXkXmXmXmXkXzXzXNXh.A b ,.( N ( &.@.o ` Z f ] S n d.-.O.N V c A ",
" .b _ Z x b o.~ [ ' ) z C v.HXdXz.GXAXB.z.%.j.3 0 0 5 5 0 D.S.kXkXmXMXVXkXkXkXBXf.,.D  .b t.R v ,.,. .] B C V T V Z ` 7.:.n R A ",
" .b ` b x  .6.B ( j 1.v l b.JXdXf.JXGXk &.%., y y w w w y w G.kXMXZXZXzXlXVXBXCX( -.:.;.c a D ;.=.A B N ` w.S w.T N v U u.V A ..",
"n D :.,.| *.( ;.| 2. .' >.K qXaXdXB.qXdXqX} %.l.;X-X-X;X;X-X-X7X7X7X,XZXK.B.m.B.:.] ` v A b ] :.v <.y.[ [ ] D C D m S f N V f R ",
"V C ] [ 7.k.*.) -.3.,.2.b l @.K.dXqXB.NXdXz.g.& [.XX.XXXXX+XXX.X(..X$XnXX.;.z N V A ` d.,.G w.x.D f B C e.T ` Z S R n V V p S T ",
"e.:.~ A ( &.@.O ' [ f.^ ^ k +.j.j.JXGX$.z.ZXxX~.|.).).XX+X`.oX).)._.XX'.Q ~ ` B z ' 6.| 7.1.] f v d S B D [ N l f C T V T n R V ",
"' o z B x B | @./ _ ) | / ^ $.@.v.JXGX*.z.CXcX{..X)._.OXoX).).XXOXOXXX[.&  .b 3./ 3.*...A >.I v f m C u.B l j y.V N V T T T T ] ",
"| @.` A ` @.O.] s 2...k 2.( $.> +.#.k.CXmXzXnX.X.X).OXXX).).oX+XOX_.).|.[.Q.( @.#.} | b A v j S I S Z u.x.A ( B e.e.V N m T V B ",
"@.=.b A } 7.0.N l 4.- > *.$.%.O.-.:.f.MXMXMXnXXX.X).oXXX`.`.OXXXoX).`.).XX[.` / { @.6.b A D D h N d ! Y f v U v w.D f T V R n 2.",
"3.2.f.b } *.$.s =...-.m.&.*.| = k y.,.MXbX,X%X(.oXXX+XXX`._.oX.XoX).`.`.+X{.J 6.i.w.` b D  .Z h h <.A B x.l f n w.B l l N w.N -.",
"7.O.:.k k O.[ C o X.f.<.,.- | + ; ~ >.uXxX!.|.)._.OXXXOXOXoXXXXXXXoX|.&X%X^.^ B :.-.b b b J t.v N w.w.` D R S M N D w.A z V N @.",
"&.] v O ` [ C [ @.=.x O O ..) | ; :.| F % $X.X`.`._.`.`.`.).XXOX+X X%XDXZXDX` j } ( -. .D S u.;.c ;.4.[ w.:.v l f M D f.;.w.S k ",
"' ` @.= ^ :.} r.*.c.x.= / O.O.&.j.k.&.X.& [.OX_.OXOXoXoX`.).oXOXXX X~.FXCXSX8.7.9.A ] b D N ;.t.=.f =.@.) w.A B S f S ` S m w.` ",
") ` @.7.[ N w.^ ^ <.^ @.6.%.%.&.f.O.+ d.& [.OX).+XXX+XoXXX).).).oX|.%XDXa.| e.-.J >.f H U v B D A Z ] @.=.b U 1.V S =.Z D S :.@.",
"6.+.3.' { z B q.| ( ) @.) @.3.@.> = ,.A & I.[.[..X+XXX+XOXOXOXOX_..X%XDXh...y.' + c b t.Y U G ] B z f ` :.-.I U S c :.U w.Z c.c ",
") f.O.: ..l p 5.....) #.O.-.*.:.%.O.7.@.a.=X=X1X[.+XoX).`.`.XXOX`.).#XM.;.z :.| ^  .| -.v U } t.;.] A ..D D D M H  .-.D v j ` =.",
"j + .. ...( l ` O.| = :.[ ` / c 0.0.| a s.wX3X5XP.].].'.].].U.U.'.'.!.U y.S k 4.&.U } ,.|  .>.n ` -.` 8.,.Z Z h S c J D v U B D ",
"D | =.| ( 4. .} &.-.@.O./ | - 6.q.O.| [ & *X-X-X>X>X>X>X6X6X:X>X,X* Q :.v v =.y.i.z J J =.U s D =.H =.] 6. .P I I b v h A ] v b ",
"b ( k / @.,.1.O.-.[ / } c o.) | @.} | a.& '.{.].9X8X8X8X0X8X8X8X1XX J x o I x.<.S A x v d.S  .b I h J Z U =.I L J Z h v t.S b J ",
"b -.-.^ ) $...- 4.j @.$.^ ` / > - $.b.Q./..XXX XU.P.P.T.T.P.I.P.W.# G $.} ..Z x.g H =. .b M c ^ c I R Z Z A I H <.P P u.E P J  .",
"} 6.-.' y.....$.` + [ *.~ b $...7./ d.|.+X+X_.OX X X|..X).(..XXX#X} $.[ 1.| -.A x.v E G c b x.-. .>.t.I I >.A H Y Y I U ;.A =.-.",
"=.| $. .-.9.4.f...@.9.3.*.*.:.6.,.| &  X+X+XOX`.+X+X+XXX).OXOXOX#Xy...:.B =.x } D b v.D h.;.D 6.x =.P M M L D L P g I h d M A A ",
"g 4.....j ..^ b j 2.} s.2.$...| (  .& |.oXXX`.).+XOXOXOX).+XOX+X#X.. .^ } U # d.X g d.U c.S T U K H I P U H I P L P S A b f H g ",
"b c ..} ( 8.&.k / ` ( + :.*.$.c } ( W [.(.).(.(.OX+XOXXX|. X X X!.f.+ + ^ I t.=.U Y ! D =.Z Y Y J H I F =.b.;.J g H >.-...J I  .",
"..( -. .,.6.f.+ ` ..| | } } } c } 8.K !.#X(.).(.+XXX+X|.~.~.~.~.~.Z c X.H b.U ;.s Z H  .v x H v =.I S =.I I J J P >.=.=.H =.;.v ",
"` :.=.b b ;.( -.>.3.-.;. . .,.`  . .t.D & |.oX).oXoX_.&XDXDXFXFXZXb ( b b b b ` ` C ( f.v b =.] ;.] =.;.| ( -.b ;.` D A <.v z ( ",
"..~ b D S j ^  .f.o.O b  .....( ..c =.;.& '.[.[.[.[.[.^.FXMXMXMXNX=.2.&.^ b *.3.:.j z b ` / ` ` ' ( - ..@.) c b ` -.l U :.l ] =.",
"} &. .d.I .. .b 4.-.A c  .I ..| ` B C ;.m.vXvXbX=X=XvXbXMXMXkXkXkXfXsX*.*.@.8.7.^ } c.B @.*.b ) O.O.+.@.) c b j z I B S ;.B D ( ",
"|  . .} } o.A [ w.C O b A v G c  .;.C <.h.NXmXkXS.J.gXkXVXzXkXkXkXkXfX3.0./ j  .:.( ~ v 2.v.t.R @.0.q.- ) ( =. .=.A 8.:.` b b  .",
"= $.;.X.| ,.X.-.` i.( B b  .G ;.e.( z s Y b.B.mXiXyXeXtXkXkXkXkXkXmXhXsXs.@.z ,.=. .-.b ~ A h z 2.q.[ 5.` z b I A :.v.=.b ^ b | ",
"| *.,.} | c b =.c } b S D  .c z A / b l ....b.sXkXgXeXtXiXaXaXzXzXkXkXBXs.7.D B ` -.8.b b B A ( ` -.i.A B D l ( N Z s A c ( =.] ",
"6.&.} v  .=.b g -.&.9...` b w.C l e.( ` ( c s ` zXkXjXyXS.*.` mXmXkXzXBXf.' b D D =.U =.b  . .) o k A D D D :.~ t.f Z Z =.-.=.=.",
"| 7.i.v b c z x g ' &.7.3.s b N D N ' -.b c ,.[ lXlXjXiXS.7.` MXmXBXzXBX6.b l 8.` -.` @.=.A ' ` ' ~ ` z C ;.=.;.D C S S v c c =.",
"=.u.B v D ;.H  .x ] ` 8.i.l B [ N l k ` l k m.BXlXzXkXrX#.@. .=.f.CXkXkXmXBX( ) @. .b :.Y j ` [ ..A Z ] n ] ] N Z N v ;.-.] b ` ",
"' b i.b A S X Y D E A c c e.` N D ' ^ z b z z.VXkXzXzXsXO.#.( + X.NXVXkXkXmX) = | ..` ` p z e.( 2.B z D ` B ` z b Z A =.` v c y.",
"` X.....( D S P w.Z ] N l a.b z . r.' e.n.rXfXkXMXhXz.s.| } b ^ =.f.m.VXkXmX^ } ( ` ` 4.C C ]  .3...-.B _ C ` ` z l l A [ B C A ",
"D U b @.@.` Z A A C ` C e.=.l b e.i.#.' z.BXVXkXkXfX= | @. .| @.3.6.f.BXzXBX&.@.2.b z ) ( ` ` =.4...b b C _ :.-.( =.C D B A l l ",
"A l b ( =.O z -. .A B J ] D w.2.[ -.2.K.rXkXmXmXM.B.| | } ~ n.4.9.n.d.BXlXzX@.6.b ' s ( ( ( ` ( @.| ( | c ` B ` C N f Z S ] D D ",
"v -.@.(  .-.-.-.} t.=.K j z B b C b f.DXFXFXFXFX  # ` -.| ( C b x ` d.ZXZXFX| ..A ( l c ..( 3.` 2.| / 7.] ( ` u.A :.s ` C R l ] ",
"A 7.7.......-. .b D x z C C _ e.B ^ d.Q.[.[.#X#X[.E.,.3.) A . A N N W Q.'.'.#XQ.) ` ` b *...#.4.3.( k ..} b ` ;...@. .v ] C B c ",
"b ( ,.` @.G x # c A A ` z [ ` ) A ) # R.@X@X@X@X@XR.} 5.0./ ..l ` X % R.@X@X@XR.# :.S :.8.( ) ) =.] C A ,.^ O f.| @.2.b e.R C B "
};
