/* XPM */
static char *_88af40185294117be5bb9ae8d03d1bbsgpNO7F1WD64iYmr[] = {
/* columns rows colors chars-per-pixel */
"64 64 208 2 ",
"   c #6C7A1C",
".  c #6F7D26",
"X  c #727D22",
"o  c #7C7F24",
"O  c #787A31",
"+  c #857D26",
"@  c #847E2B",
"#  c #8C7D2C",
"$  c #917826",
"%  c #907C2B",
"&  c #897F35",
"*  c #907E36",
"=  c #6A841F",
"-  c #6D8B1D",
";  c #72871E",
":  c #7C841D",
">  c #728A1E",
",  c #659317",
"<  c #6F951D",
"1  c #72931E",
"2  c #75991F",
"3  c #678521",
"4  c #6D8322",
"5  c #658C23",
"6  c #6D8B23",
"7  c #66822D",
"8  c #6E852B",
"9  c #668A29",
"0  c #6D8C2A",
"q  c #758523",
"w  c #7C8526",
"e  c #748C25",
"r  c #7A8C25",
"t  c #74852A",
"y  c #7C852B",
"u  c #758D2B",
"i  c #7C8C2B",
"p  c #6C9224",
"a  c #6E9C23",
"s  c #6D922B",
"d  c #6F9929",
"f  c #749325",
"g  c #7B9225",
"h  c #749A25",
"j  c #7B9A26",
"k  c #75932B",
"l  c #7C932C",
"z  c #759B2C",
"x  c #7C9B2C",
"c  c #6C8C31",
"v  c #758735",
"b  c #7D8532",
"n  c #758C32",
"m  c #7D8C32",
"M  c #7F8339",
"N  c #7C8E3A",
"B  c #6E9234",
"V  c #749332",
"C  c #7C9332",
"Z  c #769A32",
"A  c #7D9B33",
"S  c #77943A",
"D  c #7D923A",
"F  c #719938",
"G  c #7E9A3B",
"H  c #6FA425",
"J  c #77A425",
"K  c #7AA325",
"L  c #76A129",
"P  c #7CA22C",
"I  c #75A130",
"U  c #7DA232",
"Y  c #7DAD33",
"T  c #7CA138",
"R  c #848A1E",
"E  c #828426",
"W  c #8A8625",
"Q  c #838C25",
"!  c #888C25",
"~  c #83842B",
"^  c #8B852C",
"/  c #838C2C",
"(  c #8A8B2D",
")  c #92842E",
"_  c #9D832F",
"`  c #918B2D",
"'  c #829326",
"]  c #819A25",
"[  c #8A9827",
"{  c #83922D",
"}  c #8A932E",
"|  c #839B2C",
" . c #8B9A2C",
".. c #92932E",
"X. c #95982F",
"o. c #9C9B2F",
"O. c #858532",
"+. c #8C8533",
"@. c #848C32",
"#. c #8B8C33",
"$. c #878538",
"%. c #8B8639",
"&. c #848D39",
"*. c #8C8D39",
"=. c #938533",
"-. c #9C8535",
";. c #938C34",
":. c #9B8A35",
">. c #948638",
",. c #9B823C",
"<. c #948C39",
"1. c #9C8C3C",
"2. c #849332",
"3. c #8E9233",
"4. c #8A9532",
"5. c #8D9531",
"6. c #8D9532",
"7. c #8F9533",
"8. c #8C9633",
"9. c #8B9336",
"0. c #8C9334",
"q. c #8D9236",
"w. c #8B9534",
"e. c #899436",
"r. c #8D9737",
"t. c #8E9434",
"y. c #8B9334",
"u. c #839931",
"i. c #859C32",
"p. c #839934",
"a. c #819A34",
"s. c #839E35",
"d. c #849A33",
"f. c #899A33",
"g. c #8D9837",
"h. c #8B9C34",
"j. c #8C9F34",
"k. c #8F9F34",
"l. c #8B9A35",
"z. c #87963B",
"x. c #849439",
"c. c #8B943A",
"v. c #849B3A",
"b. c #8F9938",
"n. c #8A9C38",
"m. c #8E9D38",
"M. c #8E9C3A",
"N. c #8C9B3A",
"B. c #919632",
"V. c #949336",
"C. c #909436",
"Z. c #939235",
"A. c #9C9336",
"S. c #9A9736",
"D. c #9A9336",
"F. c #959A34",
"G. c #969D36",
"H. c #939A35",
"J. c #9C9837",
"K. c #979139",
"L. c #94943A",
"P. c #94933A",
"I. c #9C923D",
"U. c #9B933B",
"Y. c #919A3A",
"T. c #949A3A",
"R. c #969E39",
"E. c #939A3D",
"W. c #939D3C",
"Q. c #939A3C",
"!. c #9A9A3D",
"~. c #A38437",
"^. c #A38C3C",
"/. c #A88D3E",
"(. c #A29537",
"). c #A19438",
"_. c #A1933C",
"`. c #A19B3B",
"'. c #81A12C",
"]. c #89A02E",
"[. c #84A031",
"{. c #84A233",
"}. c #8AA530",
"|. c #8AA234",
" X c #84A23A",
".X c #8AA23C",
"XX c #83A938",
"oX c #93A43E",
"OX c #96AC3D",
"+X c #928F40",
"@X c #9B8E40",
"#X c #859940",
"$X c #899E41",
"%X c #949541",
"&X c #9B9644",
"*X c #9C9442",
"=X c #959942",
"-X c #9B9C42",
";X c #999649",
":X c #9A9C48",
">X c #A88D40",
",X c #A39343",
"<X c #A29844",
"1X c #A49E48",
"2X c #84A741",
"3X c #89A244",
"4X c #8AA844",
"5X c #99A343",
/* pixels */
"f i #.1.<.q.z.D C C } F.F.} { i.B.C.@.q g }.k.w 9 q ^ ;.K.+.#.3.` ).;.+.=.+.@.@.%.~ @.9.3./ q y ( ( / E Q #.q.#.Z./ 6 k g } { j ",
"1 g 0.( Q f.p.@.k u.3.B.G.l.g e p.u.| { 8.T.t.i u i l { 3.;.0.w.S.A.^ ~ ;.+.~ ~ ~ #.Y.3./ { 2.w.8.8.3.{ / / ( #.b.u.k k k g g h ",
"] g } { g [.g { 6 g i / Y.n.u = k k ] k.K.%.@.i y l k k i 2.2.{ B...E / 1.%.~ O.~ q.q.{ { { g.3.8.8.2.2.i i / #./ / u.g { r x U ",
"g r Q { e x f | f g i / t.f.i u u e j M.L.+.y i e k r g r l i r Q } Q E ^ + ~ *.;.#.w / 4.{ 3./ } ( i i i i 2.q./ 3.M.f.} { x x ",
"r t.;.( q u k k { 8.3.( 2.m i i u 4 t 2.2.{ ( +./ { g } { 2.i r { R.W.E.I.<.*.&X<.~ w q.g./ #.#./ / / i / 2.9.q.i u.p.s.A x f d ",
"e.T.<.+.@.u l f ( V.C.{ i l i y 0 8 n C g ! ) ~.^.Z.{ x 2.<.` i ; / i / <.<.@.#.*.+.Q 2.3./ / +./ 2.#.#.#.q.#.@.i l l A k x f f ",
"{ / / w x.C {  .<.Z.8.{ f x f.@.l C A u.{ ( :./.^.^.( u / :.:.g u.2.w y ;.<.P.:Xq.@./ i i { Q E @.@.#.;.;.#.@.~ x.2.l C Z l g g ",
"g j |.e k l } o.*X#.Q g < f f.e.@.r g { #.<.1.K.<.~._ o ~ -.:.k u.2.i / <.#.#.!.w.2.u.r g } { / i @.+.<.<.+.O.@.n 0 0 0 d k A f.",
"e A {.h e f.Q 8.} } { g f e l u.9.w ~ #.P.I.+.@ $ # @.+.@.K.{ q s.:.:.9./ { 2.=.K.q./ e r 2.e.y ~ #.t.L.L.m m *.&.m t 9 0 k Z z ",
"f.| h h g i q / l.{ r k g e q r @.~ @./ #.!.<.%.-.=.#.;.#.#./ 3.u.;.K.2.i u.{ ~ ^ ~ i e g u.f.u @.y i f.E.q.O.b v v S V s V Z A ",
"p.| h P s.{ w w i i i r r l / @.r.2.@.#.;.#.#.P.#.) -./ / #.^ e l +.*.i e { l u @.@.{ i e A f.x.x.m u V 2.<.#.n 7 c B B B 0 u i ",
"e f h U .Xn.9.#.i i g g l 2.w.9.#.9.Q E W ~ ^ +.<.=.:.Z.Z.f./ w E ~ @.y w / ~ t @.@.@.i u l v.n.2.x.C u t #.c.n c c B B B s u e ",
" Xk z k k i w +.i 4 4 u.M.2.Q / =.#./ ( ;.;.<.P.I.<.:.Z.` s u 2.;.=.P.L.L.U.K.&.@.#.q.3.l C u./ i { 2.i i p.v.u C n n V V z A l ",
"A u k 3 6 u.@.<.t   X { w.#./ #.;.~ E ( Z.;.<.*X1.:.:.;.( i i l ;.^ =.;.0.S.K.9.*.#.#.t.f.u.{ i / 4.t.#.Q l p.9.C i y u k A A x ",
"u u C 6 f {.l./ O./ +.#.( ( ( Z.=.;.q.w w P.P.#.-.<.K.-.:.!.f./ } / ( ( r  .Z.v.@.y ~ ~ C p.p.2.2.n.c.@.y i 2.n.C @.@.@.2.A s.l ",
"q t i k L h x i <.<.<.!.S.` ( D.;.#.w.q   y ~ ~ + $ +.=.+.~.` i x A g.{ p k / 6 c.@.~ ~ C A A l m e.C t m *.#.u C r.*XP.@.i Z l ",
"O e U F V | ' 3.v./ ;.L.=.;.Z./ ( ;.<.w E =.+.y -.@.~ ;.=.-.-.@.q i f x r 2.l f l u./ / / l g k l.#.~ @.P._.L.l e / -XL.9.@.&.b ",
"2.C k k - l e x e { Z.( ( <.Z.#.` :.-.# + W ) >.:.9.3.=.=.:.<.i i l g u.i l { C i @.2.{ { { l i u.#.@.q.P.;.3.l j i w.w.3.@.u b ",
"e t i g  .f.A j x } W Q l.Z.W ) ( ;.,X1.#.E ( _.I.3.2./ ( ( } g e e f..Xp.l y ~ #.e.w.f.u.{ / ~ i / @.e.2.( { x [.l i g l u.y @.",
"e e 2.| OX}.XXh h  ...Q { t.;.-.3.w.-X<XI.@./ ;.D./ / / ( ( } | l e i u 6 3 C c.@.y i C l i @.#.i @.~ y i l x L A x e f x  X{ @.",
"i i u x '.'.j ] x ! ` l.p./ =.,X^ w / :.^.I.( W ^ ( ( / { W.M.{ e r 2.C k 0 C f.9.i C C C x.c.q.2.9.#./ { j P z k k 6 f x [.g / ",
"r t 8 k K j g [ j ( ( { g 2.Z.+.q q i ;.^._.#.( ~ =.#.9./ l.f./ r i n.x.C Z v.A x.l l l l i y y @.2.3.C.4.k z x x k e f h x f { ",
"k e C l '.x { / r w Q j f r 2.l.k g | l.Z.=./ l / ` Z.3./ i i ( i l f./ ~ 2.f.k u l u.u.2.2.@.i ~ @./ 0.} f x x A k l k f f k u.",
"z j g t 4 ] r M i { r - f | x f Z r R ! ( =.;.W.> ..!.0.( l u./ u.u.x./ ^ ;.t.i e C 2.2.3.2.i i 2.e.Q E r k z g k i p.g f h x u ",
"i i i V 8 @.^ ( } ( ! ' j x } Q w w @.c.<.+.+.@.%X^.-./ ( L.2.2.@.2.C l { w.2.n.q.t.2.g f x  Xg <.#./ g g h z d x A / <.2.p k ( ",
"p.Q / i . @.9.r / { g k k l u.l + ~ ^ ;.<.%.@ # K.K.` E g t.#.@.m #.!.( b.{ 2.#./ 2./ l k k A l 2.2.{ { g j | x x k q } h.U k / ",
"e { { / @.P.q.p.q.t.p.k e i @.#.^ <.=.# +.+.+.<.Z.( ( k. Xw.+ O.n @.#.0.{ { { 8.s.l.2.2.m u l A x l ] ].].| | k z z x | x f - p.",
"h [.i.2.L.<X<.#./ Z.S.q.m m #.1.<.;.#.+.=.>.*.c.@.E E f.l.i X ~ C x.l l.r 2.e s.j 2.@.#.x.C C s.k f g | |.[.x h z h a , < 1 f 4X",
"i.j g l / 1.>.~ ( V.S.#.Q ~ ;.>XI.#.O.%.>.1.P.@.&.#.+./ E u.l 2.u t l i { i g k r { #.#.%XN.l g 5 6 6 g l l l k - h Y H J 1 - k ",
"W E r f i <.+.#.} t.4.Q E ~ +.K.I.) % -.=.=.<.+.@ b +.^ w l i l / o ( w 2.i 2.( Z.Z.;.+.e.f.l e 5 p k A l e i i j h L , K P U U ",
"=.;.} j / ;.( f.q ~ @.+.<.;.+.+.^ ) -.-.=.# ^ =.^ y #.*Xr.2.~ @.-XK.;.#.y e.#.` ;.=.#.E e l k f k Z T  XA l { { | {.z j 2 a L s.",
"<.~ i g w D.<.i i #.=.=.<.<.=.=.;.;.#.^ % # ^ =XZ.( 3.E.*.&.@.,.Z.q.z.v.2.E.q.#.-.>.K.{ e k f f k k u k f f x x  .x - ' j H a g ",
":.r.N.y =.<X2.{ @.y x.:X1.>.#.o e { i q ^ -.-.%X@X>.+.P.q g p.2.C f.y e.x.z.c.#.X. .i l i l i e p z k l A k > h x f > ; k I l ~ ",
"I./ f.~ ^ P.{ r ~ @.m x.*.=.=.^ W 0.l k 2.;.:.1XP.+.& *./ r 2.E.5X9.~ @.y u u f.} { i r i 2.f.A l A | ' | s.g 5 k Z s.p.e h x i ",
"Z./ w w / l i } / r.n t y +.=.>.) K.3.r / <.K.E.#.%.O.%.+.w / Y.l 2.=X#.y !.C.~ ~ i 2.i 2.2.s.A i l }  .| [.u.s s 5 Z oX| ] x g ",
"( 0.( E 2.k j Z.q.W.e.y #.%.>.1.,X,XL.@.3.K.#.@./ #.<.%.<.+.q.3.l 4 m *.O.#.Z.S.@.m l i g g s. X' g { t.f.C g k z p l i.{ g ] { ",
"( Z.U.;./ k p.W / t.q.;.;.>.<.<.,.=.b C v.#.+.%.~ ^ <.+.%.%.r.i i @.c.x.@.b.oX{ $.m u V f f e u.g f i @.f.l i {.z | p.f x x l.( ",
"L.#.;.D.3.6 r Z.3.( ( ;.) =.<.;.* +.%.v.z.<.>.1.# + ^ +.$.O.&.e 2.x.u i i i H./ O.m C v.Z l e i C k e Q { u.2.v.k { 3.k U A 2.^ ",
"r.@.^ ^ q.q q T.Z.;.( ;.( #.Z.Z.+.<.;.~ E +.+.O.>.%.~ #.*.&.m u n A k A |.( #.( ~ ~ @.&.&.e.f.v.v.A u.{ j l u c Z @.2.A p - i f.",
"@.m #.W / l l w + ^ ( #.4.2.( W -.-.=.Q Q #.;.>.& *.E q.=X%X@.i #.N.l f i.r / #.4.q.P.%.<.#.e.C { g w.E.C u l s n t u s.> { u.A ",
"k 3.E / #.c.9.>.} ( ;.^ + +.<.,X1.=.^ #.@.*.;X*X+.*.&.v.f.Q @.@ q i p.C i q |.|.x k u C x.D 0 Z k V k l f.n.f.C f V 0 6 ] | i v ",
"i q.~ / Z.q.=X1.M.( ^ E ^ <.%.+.# ^ Z.4.y m 9.*.^ @.e.M.2.b.-XO.b X y t t m S 2Xl u e i m 2.u C i l k k l u.C l 0 0 0 d P h 6 S ",
"Q ^ =.E ( +.@.^ / / ( ^ ~ +.+.+.>.;.T.{ q u C n.( / ~ 2.r l.b.~ M y y @.c.&.D G C i n i i i l l u C Z f k l k k v.C V T XXx i 9.",
"/ Z.( ( Z.#.!.;.i / #.#.;.<.#.<.%.^ 8.g e i e l q.q.~ ~ i 2.q m v.f.2.0.!.~ 9.x.N C $XC k i u.l m v.C s k V V k C C C Z x x u.f.",
"q.#.0./ Q L.Z.L./ #.P.;.<.I.<.P.*.~ 3.2.f.c./ 3.2.q.@.9.2.x.t m v.f.} Q ( #.w 2.v n 3Xv.Z A v.u.m m n 0 V Z V V 9 B Z k 6 6 f f ",
"E / w Q q ~ ( y / #.#.#.<.<.+.#.c.y i i y ~ ~ t.@.@.@.c.u C 2.O.#.P.w E ~ c.n C 8 t v.v.A v.v.C m m n u C G C V 0 V v.f.i e u 6 ",
"E e e./ @.E.;.@./ / E E <.<.~ y &.e.2.2.2.y Q 3.2.~ @.N.C C N.@.*.%XX y b x.#XG u u C v.C G Z l C C V C v.z.C C u e 2.x.&.x.z.u ",
"#.C w./ 2.L.I.@.E w.b.#.#.+.y @.~ 2.2.4.f.i { 2.g Q ~ M..Xg 2.#./ i / y @.9.2.2.e e i C n m u Z C Z Z u.f.e.C C C C v.C t C v.u ",
"w.u.k l l l i 2.%Xc.9.@.#.*./ l #.{ s.A x A m b N n u i l.( / / b.0.^ #.q r / V.p.k l 2.i f u.Z.p.{ / ( ;.#./ i { { g u s.g l x ",
"/ / i 2.i i y u q./ u y *.<.@.i 2.i g s.l i n.m x.C u l k.4./ / Y./ ~ *.*.9.q.T.( E { 3.3.2.{ ( ( ( W ^ ( ~ i y g i i u..Xl C f.",
"^ P.#.y y q.e.y h.{ r e C x.O.%.g 2.2.N.v.C u.u.r j l { 2.2.2.h.r./ #.*X*X#.+.q.` ( 3.{ q.!.Y.p.) ) ;.) ^ E y i i { l C f.u.2.i ",
"+.#.$.$.$.@.@.l.n.2./ e k n y +.j 2.2.y m f.g p.] | f e r 2.i g 3.@.@.P.;.^ ~ 2.} 0.2.e i w.2.x :.(.).Z./ / 2.u.u.v.n.u.i / @.w ",
"^ <.+X$.$.#.9.2.#.2.l A f./ i l i.i i y @.M.n.p.[.[.l q y r.@.{ { l q Q ^ Z.#.C l 4.4.u e l i e ` F.G.} g r g g l C v.f.q w ~ #.",
"<.#.*.@.@.y y { %.9.2.f.l.{ g f f r r 2.@.i { i g l i q y *.@.e.g l q / 3.W.{ { l 3.C./ i l / ( : r { k f g g r l k l l e i @.9.",
"#.q.f.q q i i q u q.;.Z.2.k e g j i.{ { / q y f.N.@.@./ L.!.@.2.C 2.y 3.w.2.i { / / 3.#.i i { 4.w r g k x x | } x k k k g l.2./ ",
";.E.l.e l p.u.e = 3.J.`.T.2.u.l.k e } { w @.9.@.#.o ~ ( L.0./ v.z.@.w ~ 2.i i L.;.i p.b./ i k l #./ i k k A p.4.k 6 f x k g q { ",
"l./ 4.e V m q @.h Z @.y g j k C i i e e / ~ ~ #./ +.#.+.<.<.#.~ ~ #.~ ~ ^ #.( +.` ( / l e e } } { { { { g g g g k Z k l { / / u.",
"w w 9.3.n.C 0 Z x s.g q i u.l q w { p.p.4.Q w ~ / @.~ +.+.+.~ ~ Q f.2./ #.L./ w ~ E / s.l g { { / / l l g g / Q g g k l { / i l ",
"l u.2.W ( Z Z Z x j g g x.v.l : { X.G.H.} g { 2.@.~ y ~ ~ ~ ~ ( Q { { f.#.( ( K.w./ / 2.{ i 2.2.<.0.2.l l { } ..g g g l | j k V ",
"A k w ^ ;.w i 2.r g g j p.p.{ | i. .X...{ { p.k.K.+.+.+.;.#.L.!.8.H.2.~ ~ K.:.:.2.i i / / / 2.{ :.;./ i l { { C.{ g e e j g f k ",
"e / / 0.t.E 0.w.( 2.C e e x | | x g } B.2.{ 2.H.;.~ ^ ^ #./ 4.p.} g.2./ / -XI.=.i i q w ~ ( 8.2.=.( ( #.3./ i u.} g q e k k g l ",
"w Z.K./ 2.q.E.m ( @.n e g ] ] x e i 2.w.3./ / t.f./ #.L.3.2.g k e e e i i t.P.0./ / r r ( ;.V.L.#.( / #.0./ i f.f.f.l g x | j g ",
"} ( #.Z.c.y t t / r e g } { { j / { l l { / / { l g 3.!.( / i e i i q q y L.q.q ( 2.u.f.H.#.( ( { 2./ Q / Q E q.#.q.@.i x x g g ",
"p.g 3.;.#.t t m u.x j g 2.t.2.r ! } g e / 2./ r k i L._.:.) ;.3./ E E Z.;.<.;.( #.2.l s.4.E E ( l p.l l 2.#.^ ;.#.Z.q.i x P x ] "
};
